<?xml version="1.0" encoding="UTF-8" standalone="no"?>
<!DOCTYPE svg PUBLIC "-//W3C//DTD SVG 1.1//EN"
 "http://www.w3.org/Graphics/SVG/1.1/DTD/svg11.dtd">
<!-- Generated by graphviz version 13.1.2 (20250808.2320)
 -->
<!-- Title: Tree Pages: 1 -->
<svg width="2605pt" height="477pt"
 viewBox="0.00 0.00 2605.00 477.00" xmlns="http://www.w3.org/2000/svg" xmlns:xlink="http://www.w3.org/1999/xlink">
<g id="graph0" class="graph" transform="scale(1 1) rotate(0) translate(4 473)">
<title>Tree</title>
<polygon fill="white" stroke="none" points="-4,4 -4,-473 2600.75,-473 2600.75,4 -4,4"/>
<!-- 0 -->
<g id="node1" class="node">
<title>0</title>
<path fill="#f7dac5" stroke="black" d="M1384.25,-469C1384.25,-469 1258,-469 1258,-469 1252,-469 1246,-463 1246,-457 1246,-457 1246,-413 1246,-413 1246,-407 1252,-401 1258,-401 1258,-401 1384.25,-401 1384.25,-401 1390.25,-401 1396.25,-407 1396.25,-413 1396.25,-413 1396.25,-457 1396.25,-457 1396.25,-463 1390.25,-469 1384.25,-469"/>
<text xml:space="preserve" text-anchor="start" x="1274.25" y="-451.7" font-family="Helvetica,sans-Serif" font-size="14.00">MedInc ≤ 3.914</text>
<text xml:space="preserve" text-anchor="start" x="1254" y="-436.7" font-family="Helvetica,sans-Serif" font-size="14.00">squared_error = 1.216</text>
<text xml:space="preserve" text-anchor="start" x="1276.5" y="-421.7" font-family="Helvetica,sans-Serif" font-size="14.00">samples = 127</text>
<text xml:space="preserve" text-anchor="start" x="1280.25" y="-406.7" font-family="Helvetica,sans-Serif" font-size="14.00">value = 1.981</text>
</g>
<!-- 1 -->
<g id="node2" class="node">
<title>1</title>
<path fill="#fbe9dd" stroke="black" d="M1048.25,-365C1048.25,-365 922,-365 922,-365 916,-365 910,-359 910,-353 910,-353 910,-309 910,-309 910,-303 916,-297 922,-297 922,-297 1048.25,-297 1048.25,-297 1054.25,-297 1060.25,-303 1060.25,-309 1060.25,-309 1060.25,-353 1060.25,-353 1060.25,-359 1054.25,-365 1048.25,-365"/>
<text xml:space="preserve" text-anchor="start" x="933" y="-347.7" font-family="Helvetica,sans-Serif" font-size="14.00">Latitude ≤ 34.555</text>
<text xml:space="preserve" text-anchor="start" x="918" y="-332.7" font-family="Helvetica,sans-Serif" font-size="14.00">squared_error = 0.587</text>
<text xml:space="preserve" text-anchor="start" x="944.25" y="-317.7" font-family="Helvetica,sans-Serif" font-size="14.00">samples = 72</text>
<text xml:space="preserve" text-anchor="start" x="944.25" y="-302.7" font-family="Helvetica,sans-Serif" font-size="14.00">value = 1.448</text>
</g>
<!-- 0&#45;&gt;1 -->
<g id="edge1" class="edge">
<title>0&#45;&gt;1</title>
<path fill="none" stroke="black" d="M1245.72,-411.11C1194.04,-395.42 1125.36,-374.57 1071.48,-358.22"/>
<polygon fill="black" stroke="black" points="1072.6,-354.9 1062.02,-355.34 1070.57,-361.6 1072.6,-354.9"/>
<text xml:space="preserve" text-anchor="middle" x="1072.35" y="-371.15" font-family="Helvetica,sans-Serif" font-size="14.00">True</text>
</g>
<!-- 16 -->
<g id="node17" class="node">
<title>16</title>
<path fill="#f3c5a4" stroke="black" d="M1720.25,-365C1720.25,-365 1594,-365 1594,-365 1588,-365 1582,-359 1582,-353 1582,-353 1582,-309 1582,-309 1582,-303 1588,-297 1594,-297 1594,-297 1720.25,-297 1720.25,-297 1726.25,-297 1732.25,-303 1732.25,-309 1732.25,-309 1732.25,-353 1732.25,-353 1732.25,-359 1726.25,-365 1720.25,-365"/>
<text xml:space="preserve" text-anchor="start" x="1610.25" y="-347.7" font-family="Helvetica,sans-Serif" font-size="14.00">MedInc ≤ 7.493</text>
<text xml:space="preserve" text-anchor="start" x="1590" y="-332.7" font-family="Helvetica,sans-Serif" font-size="14.00">squared_error = 1.172</text>
<text xml:space="preserve" text-anchor="start" x="1616.25" y="-317.7" font-family="Helvetica,sans-Serif" font-size="14.00">samples = 55</text>
<text xml:space="preserve" text-anchor="start" x="1616.25" y="-302.7" font-family="Helvetica,sans-Serif" font-size="14.00">value = 2.688</text>
</g>
<!-- 0&#45;&gt;16 -->
<g id="edge16" class="edge">
<title>0&#45;&gt;16</title>
<path fill="none" stroke="black" d="M1396.53,-411.11C1448.21,-395.42 1516.89,-374.57 1570.77,-358.22"/>
<polygon fill="black" stroke="black" points="1571.68,-361.6 1580.23,-355.34 1569.65,-354.9 1571.68,-361.6"/>
<text xml:space="preserve" text-anchor="middle" x="1569.9" y="-371.15" font-family="Helvetica,sans-Serif" font-size="14.00">False</text>
</g>
<!-- 2 -->
<g id="node3" class="node">
<title>2</title>
<path fill="#f9e2d1" stroke="black" d="M558.25,-261C558.25,-261 432,-261 432,-261 426,-261 420,-255 420,-249 420,-249 420,-205 420,-205 420,-199 426,-193 432,-193 432,-193 558.25,-193 558.25,-193 564.25,-193 570.25,-199 570.25,-205 570.25,-205 570.25,-249 570.25,-249 570.25,-255 564.25,-261 558.25,-261"/>
<text xml:space="preserve" text-anchor="start" x="431.38" y="-243.7" font-family="Helvetica,sans-Serif" font-size="14.00">Longitude ≤ &#45;118.335</text>
<text xml:space="preserve" text-anchor="start" x="428" y="-228.7" font-family="Helvetica,sans-Serif" font-size="14.00">squared_error = 0.645</text>
<text xml:space="preserve" text-anchor="start" x="454.25" y="-213.7" font-family="Helvetica,sans-Serif" font-size="14.00">samples = 41</text>
<text xml:space="preserve" text-anchor="start" x="454.25" y="-198.7" font-family="Helvetica,sans-Serif" font-size="14.00">value = 1.713</text>
</g>
<!-- 1&#45;&gt;2 -->
<g id="edge2" class="edge">
<title>1&#45;&gt;2</title>
<path fill="none" stroke="black" d="M909.64,-314.29C821.15,-295.87 674.81,-265.4 581.77,-246.04"/>
<polygon fill="black" stroke="black" points="582.68,-242.65 572.18,-244.04 581.26,-249.5 582.68,-242.65"/>
</g>
<!-- 9 -->
<g id="node10" class="node">
<title>9</title>
<path fill="#fdf4ee" stroke="black" d="M1048.25,-261C1048.25,-261 922,-261 922,-261 916,-261 910,-255 910,-249 910,-249 910,-205 910,-205 910,-199 916,-193 922,-193 922,-193 1048.25,-193 1048.25,-193 1054.25,-193 1060.25,-199 1060.25,-205 1060.25,-205 1060.25,-249 1060.25,-249 1060.25,-255 1054.25,-261 1048.25,-261"/>
<text xml:space="preserve" text-anchor="start" x="938.25" y="-243.7" font-family="Helvetica,sans-Serif" font-size="14.00">MedInc ≤ 2.897</text>
<text xml:space="preserve" text-anchor="start" x="918" y="-228.7" font-family="Helvetica,sans-Serif" font-size="14.00">squared_error = 0.284</text>
<text xml:space="preserve" text-anchor="start" x="944.25" y="-213.7" font-family="Helvetica,sans-Serif" font-size="14.00">samples = 31</text>
<text xml:space="preserve" text-anchor="start" x="944.25" y="-198.7" font-family="Helvetica,sans-Serif" font-size="14.00">value = 1.089</text>
</g>
<!-- 1&#45;&gt;9 -->
<g id="edge9" class="edge">
<title>1&#45;&gt;9</title>
<path fill="none" stroke="black" d="M985.12,-296.6C985.12,-289.03 985.12,-280.87 985.12,-272.9"/>
<polygon fill="black" stroke="black" points="988.63,-272.99 985.13,-262.99 981.63,-272.99 988.63,-272.99"/>
</g>
<!-- 3 -->
<g id="node4" class="node">
<title>3</title>
<path fill="#f3c7a7" stroke="black" d="M306.25,-157C306.25,-157 180,-157 180,-157 174,-157 168,-151 168,-145 168,-145 168,-101 168,-101 168,-95 174,-89 180,-89 180,-89 306.25,-89 306.25,-89 312.25,-89 318.25,-95 318.25,-101 318.25,-101 318.25,-145 318.25,-145 318.25,-151 312.25,-157 306.25,-157"/>
<text xml:space="preserve" text-anchor="start" x="187.25" y="-139.7" font-family="Helvetica,sans-Serif" font-size="14.00">AveOccup ≤ 2.753</text>
<text xml:space="preserve" text-anchor="start" x="176" y="-124.7" font-family="Helvetica,sans-Serif" font-size="14.00">squared_error = 0.766</text>
<text xml:space="preserve" text-anchor="start" x="206" y="-109.7" font-family="Helvetica,sans-Serif" font-size="14.00">samples = 7</text>
<text xml:space="preserve" text-anchor="start" x="202.25" y="-94.7" font-family="Helvetica,sans-Serif" font-size="14.00">value = 2.615</text>
</g>
<!-- 2&#45;&gt;3 -->
<g id="edge3" class="edge">
<title>2&#45;&gt;3</title>
<path fill="none" stroke="black" d="M419.52,-195.4C391.11,-183.9 358.61,-170.75 329.32,-158.89"/>
<polygon fill="black" stroke="black" points="330.67,-155.66 320.08,-155.15 328.04,-162.15 330.67,-155.66"/>
</g>
<!-- 6 -->
<g id="node7" class="node">
<title>6</title>
<path fill="#fae8db" stroke="black" d="M558.25,-157C558.25,-157 432,-157 432,-157 426,-157 420,-151 420,-145 420,-145 420,-101 420,-101 420,-95 426,-89 432,-89 432,-89 558.25,-89 558.25,-89 564.25,-89 570.25,-95 570.25,-101 570.25,-101 570.25,-145 570.25,-145 570.25,-151 564.25,-157 558.25,-157"/>
<text xml:space="preserve" text-anchor="start" x="431.38" y="-139.7" font-family="Helvetica,sans-Serif" font-size="14.00">Longitude ≤ &#45;117.215</text>
<text xml:space="preserve" text-anchor="start" x="428" y="-124.7" font-family="Helvetica,sans-Serif" font-size="14.00">squared_error = 0.381</text>
<text xml:space="preserve" text-anchor="start" x="454.25" y="-109.7" font-family="Helvetica,sans-Serif" font-size="14.00">samples = 34</text>
<text xml:space="preserve" text-anchor="start" x="461.75" y="-94.7" font-family="Helvetica,sans-Serif" font-size="14.00">value = 1.5</text>
</g>
<!-- 2&#45;&gt;6 -->
<g id="edge6" class="edge">
<title>2&#45;&gt;6</title>
<path fill="none" stroke="black" d="M495.12,-192.6C495.12,-185.03 495.12,-176.87 495.12,-168.9"/>
<polygon fill="black" stroke="black" points="498.63,-168.99 495.13,-158.99 491.63,-168.99 498.63,-168.99"/>
</g>
<!-- 4 -->
<g id="node5" class="node">
<title>4</title>
<path fill="#f6d3ba" stroke="black" d="M138.25,-53C138.25,-53 12,-53 12,-53 6,-53 0,-47 0,-41 0,-41 0,-12 0,-12 0,-6 6,0 12,0 12,0 138.25,0 138.25,0 144.25,0 150.25,-6 150.25,-12 150.25,-12 150.25,-41 150.25,-41 150.25,-47 144.25,-53 138.25,-53"/>
<text xml:space="preserve" text-anchor="start" x="8" y="-35.7" font-family="Helvetica,sans-Serif" font-size="14.00">squared_error = 0.192</text>
<text xml:space="preserve" text-anchor="start" x="38" y="-20.7" font-family="Helvetica,sans-Serif" font-size="14.00">samples = 5</text>
<text xml:space="preserve" text-anchor="start" x="34.25" y="-5.7" font-family="Helvetica,sans-Serif" font-size="14.00">value = 2.198</text>
</g>
<!-- 3&#45;&gt;4 -->
<g id="edge4" class="edge">
<title>3&#45;&gt;4</title>
<path fill="none" stroke="black" d="M183.89,-88.68C166.68,-79 147.94,-68.46 130.94,-58.9"/>
<polygon fill="black" stroke="black" points="132.91,-55.99 122.48,-54.14 129.48,-62.09 132.91,-55.99"/>
</g>
<!-- 5 -->
<g id="node6" class="node">
<title>5</title>
<path fill="#eca26d" stroke="black" d="M306.25,-53C306.25,-53 180,-53 180,-53 174,-53 168,-47 168,-41 168,-41 168,-12 168,-12 168,-6 174,0 180,0 180,0 306.25,0 306.25,0 312.25,0 318.25,-6 318.25,-12 318.25,-12 318.25,-41 318.25,-41 318.25,-47 312.25,-53 306.25,-53"/>
<text xml:space="preserve" text-anchor="start" x="176" y="-35.7" font-family="Helvetica,sans-Serif" font-size="14.00">squared_error = 0.403</text>
<text xml:space="preserve" text-anchor="start" x="206" y="-20.7" font-family="Helvetica,sans-Serif" font-size="14.00">samples = 2</text>
<text xml:space="preserve" text-anchor="start" x="202.25" y="-5.7" font-family="Helvetica,sans-Serif" font-size="14.00">value = 3.865</text>
</g>
<!-- 3&#45;&gt;5 -->
<g id="edge5" class="edge">
<title>3&#45;&gt;5</title>
<path fill="none" stroke="black" d="M243.12,-88.68C243.12,-80.99 243.12,-72.76 243.12,-64.9"/>
<polygon fill="black" stroke="black" points="246.63,-64.91 243.13,-54.91 239.63,-64.91 246.63,-64.91"/>
</g>
<!-- 7 -->
<g id="node8" class="node">
<title>7</title>
<path fill="#f9e3d3" stroke="black" d="M474.25,-53C474.25,-53 348,-53 348,-53 342,-53 336,-47 336,-41 336,-41 336,-12 336,-12 336,-6 342,0 348,0 348,0 474.25,0 474.25,0 480.25,0 486.25,-6 486.25,-12 486.25,-12 486.25,-41 486.25,-41 486.25,-47 480.25,-53 474.25,-53"/>
<text xml:space="preserve" text-anchor="start" x="344" y="-35.7" font-family="Helvetica,sans-Serif" font-size="14.00">squared_error = 0.359</text>
<text xml:space="preserve" text-anchor="start" x="370.25" y="-20.7" font-family="Helvetica,sans-Serif" font-size="14.00">samples = 25</text>
<text xml:space="preserve" text-anchor="start" x="370.25" y="-5.7" font-family="Helvetica,sans-Serif" font-size="14.00">value = 1.666</text>
</g>
<!-- 6&#45;&gt;7 -->
<g id="edge7" class="edge">
<title>6&#45;&gt;7</title>
<path fill="none" stroke="black" d="M465.51,-88.68C457.79,-79.99 449.45,-70.62 441.68,-61.87"/>
<polygon fill="black" stroke="black" points="444.41,-59.67 435.15,-54.53 439.17,-64.32 444.41,-59.67"/>
</g>
<!-- 8 -->
<g id="node9" class="node">
<title>8</title>
<path fill="#fdf5f0" stroke="black" d="M642.25,-53C642.25,-53 516,-53 516,-53 510,-53 504,-47 504,-41 504,-41 504,-12 504,-12 504,-6 510,0 516,0 516,0 642.25,0 642.25,0 648.25,0 654.25,-6 654.25,-12 654.25,-12 654.25,-41 654.25,-41 654.25,-47 648.25,-53 642.25,-53"/>
<text xml:space="preserve" text-anchor="start" x="512" y="-35.7" font-family="Helvetica,sans-Serif" font-size="14.00">squared_error = 0.152</text>
<text xml:space="preserve" text-anchor="start" x="542" y="-20.7" font-family="Helvetica,sans-Serif" font-size="14.00">samples = 9</text>
<text xml:space="preserve" text-anchor="start" x="538.25" y="-5.7" font-family="Helvetica,sans-Serif" font-size="14.00">value = 1.039</text>
</g>
<!-- 6&#45;&gt;8 -->
<g id="edge8" class="edge">
<title>6&#45;&gt;8</title>
<path fill="none" stroke="black" d="M524.74,-88.68C532.46,-79.99 540.8,-70.62 548.57,-61.87"/>
<polygon fill="black" stroke="black" points="551.08,-64.32 555.1,-54.53 545.84,-59.67 551.08,-64.32"/>
</g>
<!-- 10 -->
<g id="node11" class="node">
<title>10</title>
<path fill="#fffefd" stroke="black" d="M964.25,-157C964.25,-157 838,-157 838,-157 832,-157 826,-151 826,-145 826,-145 826,-101 826,-101 826,-95 832,-89 838,-89 838,-89 964.25,-89 964.25,-89 970.25,-89 976.25,-95 976.25,-101 976.25,-101 976.25,-145 976.25,-145 976.25,-151 970.25,-157 964.25,-157"/>
<text xml:space="preserve" text-anchor="start" x="858" y="-139.7" font-family="Helvetica,sans-Serif" font-size="14.00">MedInc ≤ 1.39</text>
<text xml:space="preserve" text-anchor="start" x="834" y="-124.7" font-family="Helvetica,sans-Serif" font-size="14.00">squared_error = 0.052</text>
<text xml:space="preserve" text-anchor="start" x="860.25" y="-109.7" font-family="Helvetica,sans-Serif" font-size="14.00">samples = 18</text>
<text xml:space="preserve" text-anchor="start" x="860.25" y="-94.7" font-family="Helvetica,sans-Serif" font-size="14.00">value = 0.753</text>
</g>
<!-- 9&#45;&gt;10 -->
<g id="edge10" class="edge">
<title>9&#45;&gt;10</title>
<path fill="none" stroke="black" d="M957.62,-192.6C950.66,-184.15 943.09,-174.96 935.82,-166.13"/>
<polygon fill="black" stroke="black" points="938.71,-164.14 929.65,-158.64 933.31,-168.59 938.71,-164.14"/>
</g>
<!-- 13 -->
<g id="node14" class="node">
<title>13</title>
<path fill="#fae6d8" stroke="black" d="M1132.25,-157C1132.25,-157 1006,-157 1006,-157 1000,-157 994,-151 994,-145 994,-145 994,-101 994,-101 994,-95 1000,-89 1006,-89 1006,-89 1132.25,-89 1132.25,-89 1138.25,-89 1144.25,-95 1144.25,-101 1144.25,-101 1144.25,-145 1144.25,-145 1144.25,-151 1138.25,-157 1132.25,-157"/>
<text xml:space="preserve" text-anchor="start" x="1005.38" y="-139.7" font-family="Helvetica,sans-Serif" font-size="14.00">Longitude ≤ &#45;121.695</text>
<text xml:space="preserve" text-anchor="start" x="1002" y="-124.7" font-family="Helvetica,sans-Serif" font-size="14.00">squared_error = 0.233</text>
<text xml:space="preserve" text-anchor="start" x="1028.25" y="-109.7" font-family="Helvetica,sans-Serif" font-size="14.00">samples = 13</text>
<text xml:space="preserve" text-anchor="start" x="1028.25" y="-94.7" font-family="Helvetica,sans-Serif" font-size="14.00">value = 1.555</text>
</g>
<!-- 9&#45;&gt;13 -->
<g id="edge13" class="edge">
<title>9&#45;&gt;13</title>
<path fill="none" stroke="black" d="M1012.63,-192.6C1019.59,-184.15 1027.16,-174.96 1034.43,-166.13"/>
<polygon fill="black" stroke="black" points="1036.94,-168.59 1040.6,-158.64 1031.54,-164.14 1036.94,-168.59"/>
</g>
<!-- 11 -->
<g id="node12" class="node">
<title>11</title>
<path fill="#fbebe0" stroke="black" d="M795.75,-53C795.75,-53 684.5,-53 684.5,-53 678.5,-53 672.5,-47 672.5,-41 672.5,-41 672.5,-12 672.5,-12 672.5,-6 678.5,0 684.5,0 684.5,0 795.75,0 795.75,0 801.75,0 807.75,-6 807.75,-12 807.75,-12 807.75,-41 807.75,-41 807.75,-47 801.75,-53 795.75,-53"/>
<text xml:space="preserve" text-anchor="start" x="680.5" y="-35.7" font-family="Helvetica,sans-Serif" font-size="14.00">squared_error = 0.0</text>
<text xml:space="preserve" text-anchor="start" x="703" y="-20.7" font-family="Helvetica,sans-Serif" font-size="14.00">samples = 1</text>
<text xml:space="preserve" text-anchor="start" x="699.25" y="-5.7" font-family="Helvetica,sans-Serif" font-size="14.00">value = 1.393</text>
</g>
<!-- 10&#45;&gt;11 -->
<g id="edge11" class="edge">
<title>10&#45;&gt;11</title>
<path fill="none" stroke="black" d="M844.36,-88.68C828.02,-79.09 810.24,-68.65 794.07,-59.16"/>
<polygon fill="black" stroke="black" points="795.94,-56.2 785.55,-54.16 792.4,-62.24 795.94,-56.2"/>
</g>
<!-- 12 -->
<g id="node13" class="node">
<title>12</title>
<path fill="#ffffff" stroke="black" d="M964.25,-53C964.25,-53 838,-53 838,-53 832,-53 826,-47 826,-41 826,-41 826,-12 826,-12 826,-6 832,0 838,0 838,0 964.25,0 964.25,0 970.25,0 976.25,-6 976.25,-12 976.25,-12 976.25,-41 976.25,-41 976.25,-47 970.25,-53 964.25,-53"/>
<text xml:space="preserve" text-anchor="start" x="834" y="-35.7" font-family="Helvetica,sans-Serif" font-size="14.00">squared_error = 0.029</text>
<text xml:space="preserve" text-anchor="start" x="860.25" y="-20.7" font-family="Helvetica,sans-Serif" font-size="14.00">samples = 17</text>
<text xml:space="preserve" text-anchor="start" x="860.25" y="-5.7" font-family="Helvetica,sans-Serif" font-size="14.00">value = 0.715</text>
</g>
<!-- 10&#45;&gt;12 -->
<g id="edge12" class="edge">
<title>10&#45;&gt;12</title>
<path fill="none" stroke="black" d="M901.12,-88.68C901.12,-80.99 901.12,-72.76 901.12,-64.9"/>
<polygon fill="black" stroke="black" points="904.63,-64.91 901.13,-54.91 897.63,-64.91 904.63,-64.91"/>
</g>
<!-- 14 -->
<g id="node15" class="node">
<title>14</title>
<path fill="#f8dfcd" stroke="black" d="M1132.25,-53C1132.25,-53 1006,-53 1006,-53 1000,-53 994,-47 994,-41 994,-41 994,-12 994,-12 994,-6 1000,0 1006,0 1006,0 1132.25,0 1132.25,0 1138.25,0 1144.25,-6 1144.25,-12 1144.25,-12 1144.25,-41 1144.25,-41 1144.25,-47 1138.25,-53 1132.25,-53"/>
<text xml:space="preserve" text-anchor="start" x="1002" y="-35.7" font-family="Helvetica,sans-Serif" font-size="14.00">squared_error = 0.215</text>
<text xml:space="preserve" text-anchor="start" x="1032" y="-20.7" font-family="Helvetica,sans-Serif" font-size="14.00">samples = 8</text>
<text xml:space="preserve" text-anchor="start" x="1028.25" y="-5.7" font-family="Helvetica,sans-Serif" font-size="14.00">value = 1.791</text>
</g>
<!-- 13&#45;&gt;14 -->
<g id="edge14" class="edge">
<title>13&#45;&gt;14</title>
<path fill="none" stroke="black" d="M1069.12,-88.68C1069.12,-80.99 1069.12,-72.76 1069.12,-64.9"/>
<polygon fill="black" stroke="black" points="1072.63,-64.91 1069.13,-54.91 1065.63,-64.91 1072.63,-64.91"/>
</g>
<!-- 15 -->
<g id="node16" class="node">
<title>15</title>
<path fill="#fcf1ea" stroke="black" d="M1300.25,-53C1300.25,-53 1174,-53 1174,-53 1168,-53 1162,-47 1162,-41 1162,-41 1162,-12 1162,-12 1162,-6 1168,0 1174,0 1174,0 1300.25,0 1300.25,0 1306.25,0 1312.25,-6 1312.25,-12 1312.25,-12 1312.25,-41 1312.25,-41 1312.25,-47 1306.25,-53 1300.25,-53"/>
<text xml:space="preserve" text-anchor="start" x="1170" y="-35.7" font-family="Helvetica,sans-Serif" font-size="14.00">squared_error = 0.031</text>
<text xml:space="preserve" text-anchor="start" x="1200" y="-20.7" font-family="Helvetica,sans-Serif" font-size="14.00">samples = 5</text>
<text xml:space="preserve" text-anchor="start" x="1196.25" y="-5.7" font-family="Helvetica,sans-Serif" font-size="14.00">value = 1.178</text>
</g>
<!-- 13&#45;&gt;15 -->
<g id="edge15" class="edge">
<title>13&#45;&gt;15</title>
<path fill="none" stroke="black" d="M1128.36,-88.68C1145.57,-79 1164.31,-68.46 1181.31,-58.9"/>
<polygon fill="black" stroke="black" points="1182.77,-62.09 1189.77,-54.14 1179.34,-55.99 1182.77,-62.09"/>
</g>
<!-- 17 -->
<g id="node18" class="node">
<title>17</title>
<path fill="#f4ccaf" stroke="black" d="M1716.5,-261C1716.5,-261 1597.75,-261 1597.75,-261 1591.75,-261 1585.75,-255 1585.75,-249 1585.75,-249 1585.75,-205 1585.75,-205 1585.75,-199 1591.75,-193 1597.75,-193 1597.75,-193 1716.5,-193 1716.5,-193 1722.5,-193 1728.5,-199 1728.5,-205 1728.5,-205 1728.5,-249 1728.5,-249 1728.5,-255 1722.5,-261 1716.5,-261"/>
<text xml:space="preserve" text-anchor="start" x="1605" y="-243.7" font-family="Helvetica,sans-Serif" font-size="14.00">HouseAge ≤ 24.5</text>
<text xml:space="preserve" text-anchor="start" x="1593.75" y="-228.7" font-family="Helvetica,sans-Serif" font-size="14.00">squared_error = 0.79</text>
<text xml:space="preserve" text-anchor="start" x="1616.25" y="-213.7" font-family="Helvetica,sans-Serif" font-size="14.00">samples = 49</text>
<text xml:space="preserve" text-anchor="start" x="1616.25" y="-198.7" font-family="Helvetica,sans-Serif" font-size="14.00">value = 2.455</text>
</g>
<!-- 16&#45;&gt;17 -->
<g id="edge17" class="edge">
<title>16&#45;&gt;17</title>
<path fill="none" stroke="black" d="M1657.12,-296.6C1657.12,-289.03 1657.12,-280.87 1657.12,-272.9"/>
<polygon fill="black" stroke="black" points="1660.63,-272.99 1657.13,-262.99 1653.63,-272.99 1660.63,-272.99"/>
</g>
<!-- 24 -->
<g id="node25" class="node">
<title>24</title>
<path fill="#e78d4c" stroke="black" d="M2202.25,-261C2202.25,-261 2076,-261 2076,-261 2070,-261 2064,-255 2064,-249 2064,-249 2064,-205 2064,-205 2064,-199 2070,-193 2076,-193 2076,-193 2202.25,-193 2202.25,-193 2208.25,-193 2214.25,-199 2214.25,-205 2214.25,-205 2214.25,-249 2214.25,-249 2214.25,-255 2208.25,-261 2202.25,-261"/>
<text xml:space="preserve" text-anchor="start" x="2087" y="-243.7" font-family="Helvetica,sans-Serif" font-size="14.00">HouseAge ≤ 17.5</text>
<text xml:space="preserve" text-anchor="start" x="2072" y="-228.7" font-family="Helvetica,sans-Serif" font-size="14.00">squared_error = 0.225</text>
<text xml:space="preserve" text-anchor="start" x="2102" y="-213.7" font-family="Helvetica,sans-Serif" font-size="14.00">samples = 6</text>
<text xml:space="preserve" text-anchor="start" x="2098.25" y="-198.7" font-family="Helvetica,sans-Serif" font-size="14.00">value = 4.592</text>
</g>
<!-- 16&#45;&gt;24 -->
<g id="edge24" class="edge">
<title>16&#45;&gt;24</title>
<path fill="none" stroke="black" d="M1732.7,-314.01C1819.43,-295.65 1961.39,-265.61 2052.51,-246.33"/>
<polygon fill="black" stroke="black" points="2053.1,-249.78 2062.16,-244.29 2051.65,-242.93 2053.1,-249.78"/>
</g>
<!-- 18 -->
<g id="node19" class="node">
<title>18</title>
<path fill="#f7d9c3" stroke="black" d="M1636.25,-157C1636.25,-157 1510,-157 1510,-157 1504,-157 1498,-151 1498,-145 1498,-145 1498,-101 1498,-101 1498,-95 1504,-89 1510,-89 1510,-89 1636.25,-89 1636.25,-89 1642.25,-89 1648.25,-95 1648.25,-101 1648.25,-101 1648.25,-145 1648.25,-145 1648.25,-151 1642.25,-157 1636.25,-157"/>
<text xml:space="preserve" text-anchor="start" x="1524.75" y="-139.7" font-family="Helvetica,sans-Serif" font-size="14.00">HouseAge ≤ 9.5</text>
<text xml:space="preserve" text-anchor="start" x="1506" y="-124.7" font-family="Helvetica,sans-Serif" font-size="14.00">squared_error = 0.389</text>
<text xml:space="preserve" text-anchor="start" x="1532.25" y="-109.7" font-family="Helvetica,sans-Serif" font-size="14.00">samples = 24</text>
<text xml:space="preserve" text-anchor="start" x="1532.25" y="-94.7" font-family="Helvetica,sans-Serif" font-size="14.00">value = 2.007</text>
</g>
<!-- 17&#45;&gt;18 -->
<g id="edge18" class="edge">
<title>17&#45;&gt;18</title>
<path fill="none" stroke="black" d="M1629.62,-192.6C1622.66,-184.15 1615.09,-174.96 1607.82,-166.13"/>
<polygon fill="black" stroke="black" points="1610.71,-164.14 1601.65,-158.64 1605.31,-168.59 1610.71,-164.14"/>
</g>
<!-- 21 -->
<g id="node22" class="node">
<title>21</title>
<path fill="#f2bf9b" stroke="black" d="M1804.25,-157C1804.25,-157 1678,-157 1678,-157 1672,-157 1666,-151 1666,-145 1666,-145 1666,-101 1666,-101 1666,-95 1672,-89 1678,-89 1678,-89 1804.25,-89 1804.25,-89 1810.25,-89 1816.25,-95 1816.25,-101 1816.25,-101 1816.25,-145 1816.25,-145 1816.25,-151 1810.25,-157 1804.25,-157"/>
<text xml:space="preserve" text-anchor="start" x="1689" y="-139.7" font-family="Helvetica,sans-Serif" font-size="14.00">HouseAge ≤ 26.0</text>
<text xml:space="preserve" text-anchor="start" x="1674" y="-124.7" font-family="Helvetica,sans-Serif" font-size="14.00">squared_error = 0.797</text>
<text xml:space="preserve" text-anchor="start" x="1700.25" y="-109.7" font-family="Helvetica,sans-Serif" font-size="14.00">samples = 25</text>
<text xml:space="preserve" text-anchor="start" x="1700.25" y="-94.7" font-family="Helvetica,sans-Serif" font-size="14.00">value = 2.885</text>
</g>
<!-- 17&#45;&gt;21 -->
<g id="edge21" class="edge">
<title>17&#45;&gt;21</title>
<path fill="none" stroke="black" d="M1684.63,-192.6C1691.59,-184.15 1699.16,-174.96 1706.43,-166.13"/>
<polygon fill="black" stroke="black" points="1708.94,-168.59 1712.6,-158.64 1703.54,-164.14 1708.94,-168.59"/>
</g>
<!-- 19 -->
<g id="node20" class="node">
<title>19</title>
<path fill="#efb489" stroke="black" d="M1468.25,-53C1468.25,-53 1342,-53 1342,-53 1336,-53 1330,-47 1330,-41 1330,-41 1330,-12 1330,-12 1330,-6 1336,0 1342,0 1342,0 1468.25,0 1468.25,0 1474.25,0 1480.25,-6 1480.25,-12 1480.25,-12 1480.25,-41 1480.25,-41 1480.25,-47 1474.25,-53 1468.25,-53"/>
<text xml:space="preserve" text-anchor="start" x="1338" y="-35.7" font-family="Helvetica,sans-Serif" font-size="14.00">squared_error = 0.041</text>
<text xml:space="preserve" text-anchor="start" x="1368" y="-20.7" font-family="Helvetica,sans-Serif" font-size="14.00">samples = 2</text>
<text xml:space="preserve" text-anchor="start" x="1364.25" y="-5.7" font-family="Helvetica,sans-Serif" font-size="14.00">value = 3.274</text>
</g>
<!-- 18&#45;&gt;19 -->
<g id="edge19" class="edge">
<title>18&#45;&gt;19</title>
<path fill="none" stroke="black" d="M1513.89,-88.68C1496.68,-79 1477.94,-68.46 1460.94,-58.9"/>
<polygon fill="black" stroke="black" points="1462.91,-55.99 1452.48,-54.14 1459.48,-62.09 1462.91,-55.99"/>
</g>
<!-- 20 -->
<g id="node21" class="node">
<title>20</title>
<path fill="#f8dcc9" stroke="black" d="M1636.25,-53C1636.25,-53 1510,-53 1510,-53 1504,-53 1498,-47 1498,-41 1498,-41 1498,-12 1498,-12 1498,-6 1504,0 1510,0 1510,0 1636.25,0 1636.25,0 1642.25,0 1648.25,-6 1648.25,-12 1648.25,-12 1648.25,-41 1648.25,-41 1648.25,-47 1642.25,-53 1636.25,-53"/>
<text xml:space="preserve" text-anchor="start" x="1506" y="-35.7" font-family="Helvetica,sans-Serif" font-size="14.00">squared_error = 0.262</text>
<text xml:space="preserve" text-anchor="start" x="1532.25" y="-20.7" font-family="Helvetica,sans-Serif" font-size="14.00">samples = 22</text>
<text xml:space="preserve" text-anchor="start" x="1532.25" y="-5.7" font-family="Helvetica,sans-Serif" font-size="14.00">value = 1.892</text>
</g>
<!-- 18&#45;&gt;20 -->
<g id="edge20" class="edge">
<title>18&#45;&gt;20</title>
<path fill="none" stroke="black" d="M1573.12,-88.68C1573.12,-80.99 1573.12,-72.76 1573.12,-64.9"/>
<polygon fill="black" stroke="black" points="1576.63,-64.91 1573.13,-54.91 1569.63,-64.91 1576.63,-64.91"/>
</g>
<!-- 22 -->
<g id="node23" class="node">
<title>22</title>
<path fill="#e68844" stroke="black" d="M1804.25,-53C1804.25,-53 1678,-53 1678,-53 1672,-53 1666,-47 1666,-41 1666,-41 1666,-12 1666,-12 1666,-6 1672,0 1678,0 1678,0 1804.25,0 1804.25,0 1810.25,0 1816.25,-6 1816.25,-12 1816.25,-12 1816.25,-41 1816.25,-41 1816.25,-47 1810.25,-53 1804.25,-53"/>
<text xml:space="preserve" text-anchor="start" x="1674" y="-35.7" font-family="Helvetica,sans-Serif" font-size="14.00">squared_error = 0.058</text>
<text xml:space="preserve" text-anchor="start" x="1704" y="-20.7" font-family="Helvetica,sans-Serif" font-size="14.00">samples = 2</text>
<text xml:space="preserve" text-anchor="start" x="1700.25" y="-5.7" font-family="Helvetica,sans-Serif" font-size="14.00">value = 4.759</text>
</g>
<!-- 21&#45;&gt;22 -->
<g id="edge22" class="edge">
<title>21&#45;&gt;22</title>
<path fill="none" stroke="black" d="M1741.12,-88.68C1741.12,-80.99 1741.12,-72.76 1741.12,-64.9"/>
<polygon fill="black" stroke="black" points="1744.63,-64.91 1741.13,-54.91 1737.63,-64.91 1744.63,-64.91"/>
</g>
<!-- 23 -->
<g id="node24" class="node">
<title>23</title>
<path fill="#f3c4a2" stroke="black" d="M1972.25,-53C1972.25,-53 1846,-53 1846,-53 1840,-53 1834,-47 1834,-41 1834,-41 1834,-12 1834,-12 1834,-6 1840,0 1846,0 1846,0 1972.25,0 1972.25,0 1978.25,0 1984.25,-6 1984.25,-12 1984.25,-12 1984.25,-41 1984.25,-41 1984.25,-47 1978.25,-53 1972.25,-53"/>
<text xml:space="preserve" text-anchor="start" x="1842" y="-35.7" font-family="Helvetica,sans-Serif" font-size="14.00">squared_error = 0.529</text>
<text xml:space="preserve" text-anchor="start" x="1868.25" y="-20.7" font-family="Helvetica,sans-Serif" font-size="14.00">samples = 23</text>
<text xml:space="preserve" text-anchor="start" x="1868.25" y="-5.7" font-family="Helvetica,sans-Serif" font-size="14.00">value = 2.722</text>
</g>
<!-- 21&#45;&gt;23 -->
<g id="edge23" class="edge">
<title>21&#45;&gt;23</title>
<path fill="none" stroke="black" d="M1800.36,-88.68C1817.57,-79 1836.31,-68.46 1853.31,-58.9"/>
<polygon fill="black" stroke="black" points="1854.77,-62.09 1861.77,-54.14 1851.34,-55.99 1854.77,-62.09"/>
</g>
<!-- 25 -->
<g id="node26" class="node">
<title>25</title>
<path fill="#eb9f69" stroke="black" d="M2202.25,-157C2202.25,-157 2076,-157 2076,-157 2070,-157 2064,-151 2064,-145 2064,-145 2064,-101 2064,-101 2064,-95 2070,-89 2076,-89 2076,-89 2202.25,-89 2202.25,-89 2208.25,-89 2214.25,-95 2214.25,-101 2214.25,-101 2214.25,-145 2214.25,-145 2214.25,-151 2208.25,-157 2202.25,-157"/>
<text xml:space="preserve" text-anchor="start" x="2079.12" y="-139.7" font-family="Helvetica,sans-Serif" font-size="14.00">Longitude ≤ &#45;119.72</text>
<text xml:space="preserve" text-anchor="start" x="2072" y="-124.7" font-family="Helvetica,sans-Serif" font-size="14.00">squared_error = 0.037</text>
<text xml:space="preserve" text-anchor="start" x="2102" y="-109.7" font-family="Helvetica,sans-Serif" font-size="14.00">samples = 2</text>
<text xml:space="preserve" text-anchor="start" x="2102" y="-94.7" font-family="Helvetica,sans-Serif" font-size="14.00">value = 3.97</text>
</g>
<!-- 24&#45;&gt;25 -->
<g id="edge25" class="edge">
<title>24&#45;&gt;25</title>
<path fill="none" stroke="black" d="M2139.12,-192.6C2139.12,-185.03 2139.12,-176.87 2139.12,-168.9"/>
<polygon fill="black" stroke="black" points="2142.63,-168.99 2139.13,-158.99 2135.63,-168.99 2142.63,-168.99"/>
</g>
<!-- 28 -->
<g id="node29" class="node">
<title>28</title>
<path fill="#e6843d" stroke="black" d="M2439.25,-157C2439.25,-157 2313,-157 2313,-157 2307,-157 2301,-151 2301,-145 2301,-145 2301,-101 2301,-101 2301,-95 2307,-89 2313,-89 2313,-89 2439.25,-89 2439.25,-89 2445.25,-89 2451.25,-95 2451.25,-101 2451.25,-101 2451.25,-145 2451.25,-145 2451.25,-151 2445.25,-157 2439.25,-157"/>
<text xml:space="preserve" text-anchor="start" x="2324" y="-139.7" font-family="Helvetica,sans-Serif" font-size="14.00">HouseAge ≤ 24.5</text>
<text xml:space="preserve" text-anchor="start" x="2309" y="-124.7" font-family="Helvetica,sans-Serif" font-size="14.00">squared_error = 0.028</text>
<text xml:space="preserve" text-anchor="start" x="2339" y="-109.7" font-family="Helvetica,sans-Serif" font-size="14.00">samples = 4</text>
<text xml:space="preserve" text-anchor="start" x="2335.25" y="-94.7" font-family="Helvetica,sans-Serif" font-size="14.00">value = 4.903</text>
</g>
<!-- 24&#45;&gt;28 -->
<g id="edge28" class="edge">
<title>24&#45;&gt;28</title>
<path fill="none" stroke="black" d="M2214.44,-193.59C2238.51,-183.22 2265.35,-171.68 2290.12,-161.01"/>
<polygon fill="black" stroke="black" points="2291.41,-164.27 2299.21,-157.1 2288.64,-157.84 2291.41,-164.27"/>
</g>
<!-- 26 -->
<g id="node27" class="node">
<title>26</title>
<path fill="#ea9a60" stroke="black" d="M2125.75,-53C2125.75,-53 2014.5,-53 2014.5,-53 2008.5,-53 2002.5,-47 2002.5,-41 2002.5,-41 2002.5,-12 2002.5,-12 2002.5,-6 2008.5,0 2014.5,0 2014.5,0 2125.75,0 2125.75,0 2131.75,0 2137.75,-6 2137.75,-12 2137.75,-12 2137.75,-41 2137.75,-41 2137.75,-47 2131.75,-53 2125.75,-53"/>
<text xml:space="preserve" text-anchor="start" x="2010.5" y="-35.7" font-family="Helvetica,sans-Serif" font-size="14.00">squared_error = 0.0</text>
<text xml:space="preserve" text-anchor="start" x="2033" y="-20.7" font-family="Helvetica,sans-Serif" font-size="14.00">samples = 1</text>
<text xml:space="preserve" text-anchor="start" x="2029.25" y="-5.7" font-family="Helvetica,sans-Serif" font-size="14.00">value = 4.163</text>
</g>
<!-- 25&#45;&gt;26 -->
<g id="edge26" class="edge">
<title>25&#45;&gt;26</title>
<path fill="none" stroke="black" d="M2114.8,-88.68C2108.59,-80.18 2101.89,-71.01 2095.62,-62.42"/>
<polygon fill="black" stroke="black" points="2098.65,-60.63 2089.92,-54.62 2092.99,-64.76 2098.65,-60.63"/>
</g>
<!-- 27 -->
<g id="node28" class="node">
<title>27</title>
<path fill="#eca572" stroke="black" d="M2278.75,-53C2278.75,-53 2167.5,-53 2167.5,-53 2161.5,-53 2155.5,-47 2155.5,-41 2155.5,-41 2155.5,-12 2155.5,-12 2155.5,-6 2161.5,0 2167.5,0 2167.5,0 2278.75,0 2278.75,0 2284.75,0 2290.75,-6 2290.75,-12 2290.75,-12 2290.75,-41 2290.75,-41 2290.75,-47 2284.75,-53 2278.75,-53"/>
<text xml:space="preserve" text-anchor="start" x="2163.5" y="-35.7" font-family="Helvetica,sans-Serif" font-size="14.00">squared_error = 0.0</text>
<text xml:space="preserve" text-anchor="start" x="2186" y="-20.7" font-family="Helvetica,sans-Serif" font-size="14.00">samples = 1</text>
<text xml:space="preserve" text-anchor="start" x="2182.25" y="-5.7" font-family="Helvetica,sans-Serif" font-size="14.00">value = 3.776</text>
</g>
<!-- 25&#45;&gt;27 -->
<g id="edge27" class="edge">
<title>25&#45;&gt;27</title>
<path fill="none" stroke="black" d="M2168.74,-88.68C2176.46,-79.99 2184.8,-70.62 2192.57,-61.87"/>
<polygon fill="black" stroke="black" points="2195.08,-64.32 2199.1,-54.53 2189.84,-59.67 2195.08,-64.32"/>
</g>
<!-- 29 -->
<g id="node30" class="node">
<title>29</title>
<path fill="#e78c4b" stroke="black" d="M2431.75,-53C2431.75,-53 2320.5,-53 2320.5,-53 2314.5,-53 2308.5,-47 2308.5,-41 2308.5,-41 2308.5,-12 2308.5,-12 2308.5,-6 2314.5,0 2320.5,0 2320.5,0 2431.75,0 2431.75,0 2437.75,0 2443.75,-6 2443.75,-12 2443.75,-12 2443.75,-41 2443.75,-41 2443.75,-47 2437.75,-53 2431.75,-53"/>
<text xml:space="preserve" text-anchor="start" x="2316.5" y="-35.7" font-family="Helvetica,sans-Serif" font-size="14.00">squared_error = 0.0</text>
<text xml:space="preserve" text-anchor="start" x="2339" y="-20.7" font-family="Helvetica,sans-Serif" font-size="14.00">samples = 1</text>
<text xml:space="preserve" text-anchor="start" x="2335.25" y="-5.7" font-family="Helvetica,sans-Serif" font-size="14.00">value = 4.613</text>
</g>
<!-- 28&#45;&gt;29 -->
<g id="edge29" class="edge">
<title>28&#45;&gt;29</title>
<path fill="none" stroke="black" d="M2376.12,-88.68C2376.12,-80.99 2376.12,-72.76 2376.12,-64.9"/>
<polygon fill="black" stroke="black" points="2379.63,-64.91 2376.13,-54.91 2372.63,-64.91 2379.63,-64.91"/>
</g>
<!-- 30 -->
<g id="node31" class="node">
<title>30</title>
<path fill="#e58139" stroke="black" d="M2584.75,-53C2584.75,-53 2473.5,-53 2473.5,-53 2467.5,-53 2461.5,-47 2461.5,-41 2461.5,-41 2461.5,-12 2461.5,-12 2461.5,-6 2467.5,0 2473.5,0 2473.5,0 2584.75,0 2584.75,0 2590.75,0 2596.75,-6 2596.75,-12 2596.75,-12 2596.75,-41 2596.75,-41 2596.75,-47 2590.75,-53 2584.75,-53"/>
<text xml:space="preserve" text-anchor="start" x="2469.5" y="-35.7" font-family="Helvetica,sans-Serif" font-size="14.00">squared_error = 0.0</text>
<text xml:space="preserve" text-anchor="start" x="2492" y="-20.7" font-family="Helvetica,sans-Serif" font-size="14.00">samples = 3</text>
<text xml:space="preserve" text-anchor="start" x="2495.75" y="-5.7" font-family="Helvetica,sans-Serif" font-size="14.00">value = 5.0</text>
</g>
<!-- 28&#45;&gt;30 -->
<g id="edge30" class="edge">
<title>28&#45;&gt;30</title>
<path fill="none" stroke="black" d="M2430.07,-88.68C2445.45,-79.18 2462.17,-68.85 2477.42,-59.43"/>
<polygon fill="black" stroke="black" points="2479.25,-62.42 2485.91,-54.19 2475.57,-56.47 2479.25,-62.42"/>
</g>
</g>
</svg>
