<?xml version="1.0" encoding="UTF-8" standalone="no"?>
<!DOCTYPE svg PUBLIC "-//W3C//DTD SVG 1.1//EN"
 "http://www.w3.org/Graphics/SVG/1.1/DTD/svg11.dtd">
<!-- Generated by graphviz version 13.1.2 (20250808.2320)
 -->
<!-- Title: Tree Pages: 1 -->
<svg width="2121pt" height="477pt"
 viewBox="0.00 0.00 2121.00 477.00" xmlns="http://www.w3.org/2000/svg" xmlns:xlink="http://www.w3.org/1999/xlink">
<g id="graph0" class="graph" transform="scale(1 1) rotate(0) translate(4 473)">
<title>Tree</title>
<polygon fill="white" stroke="none" points="-4,4 -4,-473 2116.75,-473 2116.75,4 -4,4"/>
<!-- 0 -->
<g id="node1" class="node">
<title>0</title>
<path fill="#f7d9c3" stroke="black" d="M1369.25,-469C1369.25,-469 1243,-469 1243,-469 1237,-469 1231,-463 1231,-457 1231,-457 1231,-413 1231,-413 1231,-407 1237,-401 1243,-401 1243,-401 1369.25,-401 1369.25,-401 1375.25,-401 1381.25,-407 1381.25,-413 1381.25,-413 1381.25,-457 1381.25,-457 1381.25,-463 1375.25,-469 1369.25,-469"/>
<text xml:space="preserve" text-anchor="start" x="1259.25" y="-451.7" font-family="Helvetica,sans-Serif" font-size="14.00">MedInc ≤ 5.044</text>
<text xml:space="preserve" text-anchor="start" x="1239" y="-436.7" font-family="Helvetica,sans-Serif" font-size="14.00">squared_error = 1.385</text>
<text xml:space="preserve" text-anchor="start" x="1261.5" y="-421.7" font-family="Helvetica,sans-Serif" font-size="14.00">samples = 128</text>
<text xml:space="preserve" text-anchor="start" x="1265.25" y="-406.7" font-family="Helvetica,sans-Serif" font-size="14.00">value = 2.104</text>
</g>
<!-- 1 -->
<g id="node2" class="node">
<title>1</title>
<path fill="#f9e3d4" stroke="black" d="M1033.25,-365C1033.25,-365 907,-365 907,-365 901,-365 895,-359 895,-353 895,-353 895,-309 895,-309 895,-303 901,-297 907,-297 907,-297 1033.25,-297 1033.25,-297 1039.25,-297 1045.25,-303 1045.25,-309 1045.25,-309 1045.25,-353 1045.25,-353 1045.25,-359 1039.25,-365 1033.25,-365"/>
<text xml:space="preserve" text-anchor="start" x="914.25" y="-347.7" font-family="Helvetica,sans-Serif" font-size="14.00">AveOccup ≤ 1.914</text>
<text xml:space="preserve" text-anchor="start" x="903" y="-332.7" font-family="Helvetica,sans-Serif" font-size="14.00">squared_error = 0.835</text>
<text xml:space="preserve" text-anchor="start" x="925.5" y="-317.7" font-family="Helvetica,sans-Serif" font-size="14.00">samples = 102</text>
<text xml:space="preserve" text-anchor="start" x="929.25" y="-302.7" font-family="Helvetica,sans-Serif" font-size="14.00">value = 1.767</text>
</g>
<!-- 0&#45;&gt;1 -->
<g id="edge1" class="edge">
<title>0&#45;&gt;1</title>
<path fill="none" stroke="black" d="M1230.72,-411.11C1179.04,-395.42 1110.36,-374.57 1056.48,-358.22"/>
<polygon fill="black" stroke="black" points="1057.6,-354.9 1047.02,-355.34 1055.57,-361.6 1057.6,-354.9"/>
<text xml:space="preserve" text-anchor="middle" x="1057.35" y="-371.15" font-family="Helvetica,sans-Serif" font-size="14.00">True</text>
</g>
<!-- 16 -->
<g id="node17" class="node">
<title>16</title>
<path fill="#efb184" stroke="black" d="M1698.5,-365C1698.5,-365 1579.75,-365 1579.75,-365 1573.75,-365 1567.75,-359 1567.75,-353 1567.75,-353 1567.75,-309 1567.75,-309 1567.75,-303 1573.75,-297 1579.75,-297 1579.75,-297 1698.5,-297 1698.5,-297 1704.5,-297 1710.5,-303 1710.5,-309 1710.5,-309 1710.5,-353 1710.5,-353 1710.5,-359 1704.5,-365 1698.5,-365"/>
<text xml:space="preserve" text-anchor="start" x="1581.38" y="-347.7" font-family="Helvetica,sans-Serif" font-size="14.00">AveRooms ≤ 7.354</text>
<text xml:space="preserve" text-anchor="start" x="1575.75" y="-332.7" font-family="Helvetica,sans-Serif" font-size="14.00">squared_error = 1.35</text>
<text xml:space="preserve" text-anchor="start" x="1598.25" y="-317.7" font-family="Helvetica,sans-Serif" font-size="14.00">samples = 26</text>
<text xml:space="preserve" text-anchor="start" x="1598.25" y="-302.7" font-family="Helvetica,sans-Serif" font-size="14.00">value = 3.426</text>
</g>
<!-- 0&#45;&gt;16 -->
<g id="edge16" class="edge">
<title>0&#45;&gt;16</title>
<path fill="none" stroke="black" d="M1381.69,-410.85C1433.75,-394.91 1502.92,-373.72 1556.45,-357.32"/>
<polygon fill="black" stroke="black" points="1557.3,-360.72 1565.84,-354.45 1555.25,-354.03 1557.3,-360.72"/>
<text xml:space="preserve" text-anchor="middle" x="1555.56" y="-370.28" font-family="Helvetica,sans-Serif" font-size="14.00">False</text>
</g>
<!-- 2 -->
<g id="node3" class="node">
<title>2</title>
<path fill="#eead7e" stroke="black" d="M538.25,-261C538.25,-261 412,-261 412,-261 406,-261 400,-255 400,-249 400,-249 400,-205 400,-205 400,-199 406,-193 412,-193 412,-193 538.25,-193 538.25,-193 544.25,-193 550.25,-199 550.25,-205 550.25,-205 550.25,-249 550.25,-249 550.25,-255 544.25,-261 538.25,-261"/>
<text xml:space="preserve" text-anchor="start" x="428.25" y="-243.7" font-family="Helvetica,sans-Serif" font-size="14.00">MedInc ≤ 3.473</text>
<text xml:space="preserve" text-anchor="start" x="408" y="-228.7" font-family="Helvetica,sans-Serif" font-size="14.00">squared_error = 0.941</text>
<text xml:space="preserve" text-anchor="start" x="438" y="-213.7" font-family="Helvetica,sans-Serif" font-size="14.00">samples = 6</text>
<text xml:space="preserve" text-anchor="start" x="434.25" y="-198.7" font-family="Helvetica,sans-Serif" font-size="14.00">value = 3.558</text>
</g>
<!-- 1&#45;&gt;2 -->
<g id="edge2" class="edge">
<title>1&#45;&gt;2</title>
<path fill="none" stroke="black" d="M894.68,-314.45C805.08,-295.99 655.95,-265.26 561.73,-245.85"/>
<polygon fill="black" stroke="black" points="562.5,-242.43 552,-243.84 561.09,-249.29 562.5,-242.43"/>
</g>
<!-- 9 -->
<g id="node10" class="node">
<title>9</title>
<path fill="#fae7d9" stroke="black" d="M1033.25,-261C1033.25,-261 907,-261 907,-261 901,-261 895,-255 895,-249 895,-249 895,-205 895,-205 895,-199 901,-193 907,-193 907,-193 1033.25,-193 1033.25,-193 1039.25,-193 1045.25,-199 1045.25,-205 1045.25,-205 1045.25,-249 1045.25,-249 1045.25,-255 1039.25,-261 1033.25,-261"/>
<text xml:space="preserve" text-anchor="start" x="923.25" y="-243.7" font-family="Helvetica,sans-Serif" font-size="14.00">MedInc ≤ 3.226</text>
<text xml:space="preserve" text-anchor="start" x="903" y="-228.7" font-family="Helvetica,sans-Serif" font-size="14.00">squared_error = 0.615</text>
<text xml:space="preserve" text-anchor="start" x="929.25" y="-213.7" font-family="Helvetica,sans-Serif" font-size="14.00">samples = 96</text>
<text xml:space="preserve" text-anchor="start" x="929.25" y="-198.7" font-family="Helvetica,sans-Serif" font-size="14.00">value = 1.655</text>
</g>
<!-- 1&#45;&gt;9 -->
<g id="edge9" class="edge">
<title>1&#45;&gt;9</title>
<path fill="none" stroke="black" d="M970.12,-296.6C970.12,-289.03 970.12,-280.87 970.12,-272.9"/>
<polygon fill="black" stroke="black" points="973.63,-272.99 970.13,-262.99 966.63,-272.99 973.63,-272.99"/>
</g>
<!-- 3 -->
<g id="node4" class="node">
<title>3</title>
<path fill="#f3c7a7" stroke="black" d="M299.25,-157C299.25,-157 173,-157 173,-157 167,-157 161,-151 161,-145 161,-145 161,-101 161,-101 161,-95 167,-89 173,-89 173,-89 299.25,-89 299.25,-89 305.25,-89 311.25,-95 311.25,-101 311.25,-101 311.25,-145 311.25,-145 311.25,-151 305.25,-157 299.25,-157"/>
<text xml:space="preserve" text-anchor="start" x="179.88" y="-139.7" font-family="Helvetica,sans-Serif" font-size="14.00">Longitude ≤ &#45;119.5</text>
<text xml:space="preserve" text-anchor="start" x="169" y="-124.7" font-family="Helvetica,sans-Serif" font-size="14.00">squared_error = 0.152</text>
<text xml:space="preserve" text-anchor="start" x="199" y="-109.7" font-family="Helvetica,sans-Serif" font-size="14.00">samples = 3</text>
<text xml:space="preserve" text-anchor="start" x="195.25" y="-94.7" font-family="Helvetica,sans-Serif" font-size="14.00">value = 2.704</text>
</g>
<!-- 2&#45;&gt;3 -->
<g id="edge3" class="edge">
<title>2&#45;&gt;3</title>
<path fill="none" stroke="black" d="M399.5,-193.73C374.86,-183.21 347.33,-171.46 322,-160.65"/>
<polygon fill="black" stroke="black" points="323.63,-157.54 313.06,-156.83 320.88,-163.98 323.63,-157.54"/>
</g>
<!-- 6 -->
<g id="node7" class="node">
<title>6</title>
<path fill="#e99355" stroke="black" d="M534.5,-157C534.5,-157 415.75,-157 415.75,-157 409.75,-157 403.75,-151 403.75,-145 403.75,-145 403.75,-101 403.75,-101 403.75,-95 409.75,-89 415.75,-89 415.75,-89 534.5,-89 534.5,-89 540.5,-89 546.5,-95 546.5,-101 546.5,-101 546.5,-145 546.5,-145 546.5,-151 540.5,-157 534.5,-157"/>
<text xml:space="preserve" text-anchor="start" x="426.75" y="-139.7" font-family="Helvetica,sans-Serif" font-size="14.00">Latitude ≤ 33.84</text>
<text xml:space="preserve" text-anchor="start" x="411.75" y="-124.7" font-family="Helvetica,sans-Serif" font-size="14.00">squared_error = 0.27</text>
<text xml:space="preserve" text-anchor="start" x="438" y="-109.7" font-family="Helvetica,sans-Serif" font-size="14.00">samples = 3</text>
<text xml:space="preserve" text-anchor="start" x="434.25" y="-94.7" font-family="Helvetica,sans-Serif" font-size="14.00">value = 4.412</text>
</g>
<!-- 2&#45;&gt;6 -->
<g id="edge6" class="edge">
<title>2&#45;&gt;6</title>
<path fill="none" stroke="black" d="M475.12,-192.6C475.12,-185.03 475.12,-176.87 475.12,-168.9"/>
<polygon fill="black" stroke="black" points="478.63,-168.99 475.13,-158.99 471.63,-168.99 478.63,-168.99"/>
</g>
<!-- 4 -->
<g id="node5" class="node">
<title>4</title>
<path fill="#f5cfb4" stroke="black" d="M138.25,-53C138.25,-53 12,-53 12,-53 6,-53 0,-47 0,-41 0,-41 0,-12 0,-12 0,-6 6,0 12,0 12,0 138.25,0 138.25,0 144.25,0 150.25,-6 150.25,-12 150.25,-12 150.25,-41 150.25,-41 150.25,-47 144.25,-53 138.25,-53"/>
<text xml:space="preserve" text-anchor="start" x="8" y="-35.7" font-family="Helvetica,sans-Serif" font-size="14.00">squared_error = 0.005</text>
<text xml:space="preserve" text-anchor="start" x="38" y="-20.7" font-family="Helvetica,sans-Serif" font-size="14.00">samples = 2</text>
<text xml:space="preserve" text-anchor="start" x="34.25" y="-5.7" font-family="Helvetica,sans-Serif" font-size="14.00">value = 2.431</text>
</g>
<!-- 3&#45;&gt;4 -->
<g id="edge4" class="edge">
<title>3&#45;&gt;4</title>
<path fill="none" stroke="black" d="M179.36,-88.68C163.02,-79.09 145.24,-68.65 129.07,-59.16"/>
<polygon fill="black" stroke="black" points="130.94,-56.2 120.55,-54.16 127.4,-62.24 130.94,-56.2"/>
</g>
<!-- 5 -->
<g id="node6" class="node">
<title>5</title>
<path fill="#f0b68d" stroke="black" d="M291.75,-53C291.75,-53 180.5,-53 180.5,-53 174.5,-53 168.5,-47 168.5,-41 168.5,-41 168.5,-12 168.5,-12 168.5,-6 174.5,0 180.5,0 180.5,0 291.75,0 291.75,0 297.75,0 303.75,-6 303.75,-12 303.75,-12 303.75,-41 303.75,-41 303.75,-47 297.75,-53 291.75,-53"/>
<text xml:space="preserve" text-anchor="start" x="176.5" y="-35.7" font-family="Helvetica,sans-Serif" font-size="14.00">squared_error = 0.0</text>
<text xml:space="preserve" text-anchor="start" x="199" y="-20.7" font-family="Helvetica,sans-Serif" font-size="14.00">samples = 1</text>
<text xml:space="preserve" text-anchor="start" x="199" y="-5.7" font-family="Helvetica,sans-Serif" font-size="14.00">value = 3.25</text>
</g>
<!-- 3&#45;&gt;5 -->
<g id="edge5" class="edge">
<title>3&#45;&gt;5</title>
<path fill="none" stroke="black" d="M236.12,-88.68C236.12,-80.99 236.12,-72.76 236.12,-64.9"/>
<polygon fill="black" stroke="black" points="239.63,-64.91 236.13,-54.91 232.63,-64.91 239.63,-64.91"/>
</g>
<!-- 7 -->
<g id="node8" class="node">
<title>7</title>
<path fill="#eda775" stroke="black" d="M444.75,-53C444.75,-53 333.5,-53 333.5,-53 327.5,-53 321.5,-47 321.5,-41 321.5,-41 321.5,-12 321.5,-12 321.5,-6 327.5,0 333.5,0 333.5,0 444.75,0 444.75,0 450.75,0 456.75,-6 456.75,-12 456.75,-12 456.75,-41 456.75,-41 456.75,-47 450.75,-53 444.75,-53"/>
<text xml:space="preserve" text-anchor="start" x="329.5" y="-35.7" font-family="Helvetica,sans-Serif" font-size="14.00">squared_error = 0.0</text>
<text xml:space="preserve" text-anchor="start" x="352" y="-20.7" font-family="Helvetica,sans-Serif" font-size="14.00">samples = 1</text>
<text xml:space="preserve" text-anchor="start" x="348.25" y="-5.7" font-family="Helvetica,sans-Serif" font-size="14.00">value = 3.737</text>
</g>
<!-- 6&#45;&gt;7 -->
<g id="edge7" class="edge">
<title>6&#45;&gt;7</title>
<path fill="none" stroke="black" d="M444.8,-88.68C436.9,-79.99 428.36,-70.62 420.41,-61.87"/>
<polygon fill="black" stroke="black" points="423.03,-59.55 413.71,-54.51 417.85,-64.26 423.03,-59.55"/>
</g>
<!-- 8 -->
<g id="node9" class="node">
<title>8</title>
<path fill="#e78945" stroke="black" d="M613.25,-53C613.25,-53 487,-53 487,-53 481,-53 475,-47 475,-41 475,-41 475,-12 475,-12 475,-6 481,0 487,0 487,0 613.25,0 613.25,0 619.25,0 625.25,-6 625.25,-12 625.25,-12 625.25,-41 625.25,-41 625.25,-47 619.25,-53 613.25,-53"/>
<text xml:space="preserve" text-anchor="start" x="483" y="-35.7" font-family="Helvetica,sans-Serif" font-size="14.00">squared_error = 0.063</text>
<text xml:space="preserve" text-anchor="start" x="513" y="-20.7" font-family="Helvetica,sans-Serif" font-size="14.00">samples = 2</text>
<text xml:space="preserve" text-anchor="start" x="513" y="-5.7" font-family="Helvetica,sans-Serif" font-size="14.00">value = 4.75</text>
</g>
<!-- 6&#45;&gt;8 -->
<g id="edge8" class="edge">
<title>6&#45;&gt;8</title>
<path fill="none" stroke="black" d="M501.57,-88.68C508.39,-80.09 515.75,-70.81 522.63,-62.15"/>
<polygon fill="black" stroke="black" points="525.16,-64.59 528.63,-54.58 519.68,-60.24 525.16,-64.59"/>
</g>
<!-- 10 -->
<g id="node11" class="node">
<title>10</title>
<path fill="#fdf4ed" stroke="black" d="M949.25,-157C949.25,-157 823,-157 823,-157 817,-157 811,-151 811,-145 811,-145 811,-101 811,-101 811,-95 817,-89 823,-89 823,-89 949.25,-89 949.25,-89 955.25,-89 961.25,-95 961.25,-101 961.25,-101 961.25,-145 961.25,-145 961.25,-151 955.25,-157 949.25,-157"/>
<text xml:space="preserve" text-anchor="start" x="837.75" y="-139.7" font-family="Helvetica,sans-Serif" font-size="14.00">Latitude ≤ 34.77</text>
<text xml:space="preserve" text-anchor="start" x="819" y="-124.7" font-family="Helvetica,sans-Serif" font-size="14.00">squared_error = 0.236</text>
<text xml:space="preserve" text-anchor="start" x="845.25" y="-109.7" font-family="Helvetica,sans-Serif" font-size="14.00">samples = 44</text>
<text xml:space="preserve" text-anchor="start" x="845.25" y="-94.7" font-family="Helvetica,sans-Serif" font-size="14.00">value = 1.226</text>
</g>
<!-- 9&#45;&gt;10 -->
<g id="edge10" class="edge">
<title>9&#45;&gt;10</title>
<path fill="none" stroke="black" d="M942.62,-192.6C935.66,-184.15 928.09,-174.96 920.82,-166.13"/>
<polygon fill="black" stroke="black" points="923.71,-164.14 914.65,-158.64 918.31,-168.59 923.71,-164.14"/>
</g>
<!-- 13 -->
<g id="node14" class="node">
<title>13</title>
<path fill="#f8dcc8" stroke="black" d="M1117.25,-157C1117.25,-157 991,-157 991,-157 985,-157 979,-151 979,-145 979,-145 979,-101 979,-101 979,-95 985,-89 991,-89 991,-89 1117.25,-89 1117.25,-89 1123.25,-89 1129.25,-95 1129.25,-101 1129.25,-101 1129.25,-145 1129.25,-145 1129.25,-151 1123.25,-157 1117.25,-157"/>
<text xml:space="preserve" text-anchor="start" x="998.25" y="-139.7" font-family="Helvetica,sans-Serif" font-size="14.00">AveOccup ≤ 2.821</text>
<text xml:space="preserve" text-anchor="start" x="987" y="-124.7" font-family="Helvetica,sans-Serif" font-size="14.00">squared_error = 0.649</text>
<text xml:space="preserve" text-anchor="start" x="1013.25" y="-109.7" font-family="Helvetica,sans-Serif" font-size="14.00">samples = 52</text>
<text xml:space="preserve" text-anchor="start" x="1013.25" y="-94.7" font-family="Helvetica,sans-Serif" font-size="14.00">value = 2.017</text>
</g>
<!-- 9&#45;&gt;13 -->
<g id="edge13" class="edge">
<title>9&#45;&gt;13</title>
<path fill="none" stroke="black" d="M997.63,-192.6C1004.59,-184.15 1012.16,-174.96 1019.43,-166.13"/>
<polygon fill="black" stroke="black" points="1021.94,-168.59 1025.6,-158.64 1016.54,-164.14 1021.94,-168.59"/>
</g>
<!-- 11 -->
<g id="node12" class="node">
<title>11</title>
<path fill="#fbede2" stroke="black" d="M781.25,-53C781.25,-53 655,-53 655,-53 649,-53 643,-47 643,-41 643,-41 643,-12 643,-12 643,-6 649,0 655,0 655,0 781.25,0 781.25,0 787.25,0 793.25,-6 793.25,-12 793.25,-12 793.25,-41 793.25,-41 793.25,-47 787.25,-53 781.25,-53"/>
<text xml:space="preserve" text-anchor="start" x="651" y="-35.7" font-family="Helvetica,sans-Serif" font-size="14.00">squared_error = 0.154</text>
<text xml:space="preserve" text-anchor="start" x="677.25" y="-20.7" font-family="Helvetica,sans-Serif" font-size="14.00">samples = 27</text>
<text xml:space="preserve" text-anchor="start" x="677.25" y="-5.7" font-family="Helvetica,sans-Serif" font-size="14.00">value = 1.458</text>
</g>
<!-- 10&#45;&gt;11 -->
<g id="edge11" class="edge">
<title>10&#45;&gt;11</title>
<path fill="none" stroke="black" d="M826.89,-88.68C809.68,-79 790.94,-68.46 773.94,-58.9"/>
<polygon fill="black" stroke="black" points="775.91,-55.99 765.48,-54.14 772.48,-62.09 775.91,-55.99"/>
</g>
<!-- 12 -->
<g id="node13" class="node">
<title>12</title>
<path fill="#ffffff" stroke="black" d="M949.25,-53C949.25,-53 823,-53 823,-53 817,-53 811,-47 811,-41 811,-41 811,-12 811,-12 811,-6 817,0 823,0 823,0 949.25,0 949.25,0 955.25,0 961.25,-6 961.25,-12 961.25,-12 961.25,-41 961.25,-41 961.25,-47 955.25,-53 949.25,-53"/>
<text xml:space="preserve" text-anchor="start" x="819" y="-35.7" font-family="Helvetica,sans-Serif" font-size="14.00">squared_error = 0.143</text>
<text xml:space="preserve" text-anchor="start" x="845.25" y="-20.7" font-family="Helvetica,sans-Serif" font-size="14.00">samples = 17</text>
<text xml:space="preserve" text-anchor="start" x="845.25" y="-5.7" font-family="Helvetica,sans-Serif" font-size="14.00">value = 0.856</text>
</g>
<!-- 10&#45;&gt;12 -->
<g id="edge12" class="edge">
<title>10&#45;&gt;12</title>
<path fill="none" stroke="black" d="M886.12,-88.68C886.12,-80.99 886.12,-72.76 886.12,-64.9"/>
<polygon fill="black" stroke="black" points="889.63,-64.91 886.13,-54.91 882.63,-64.91 889.63,-64.91"/>
</g>
<!-- 14 -->
<g id="node15" class="node">
<title>14</title>
<path fill="#f5cfb3" stroke="black" d="M1117.25,-53C1117.25,-53 991,-53 991,-53 985,-53 979,-47 979,-41 979,-41 979,-12 979,-12 979,-6 985,0 991,0 991,0 1117.25,0 1117.25,0 1123.25,0 1129.25,-6 1129.25,-12 1129.25,-12 1129.25,-41 1129.25,-41 1129.25,-47 1123.25,-53 1117.25,-53"/>
<text xml:space="preserve" text-anchor="start" x="987" y="-35.7" font-family="Helvetica,sans-Serif" font-size="14.00">squared_error = 0.677</text>
<text xml:space="preserve" text-anchor="start" x="1013.25" y="-20.7" font-family="Helvetica,sans-Serif" font-size="14.00">samples = 25</text>
<text xml:space="preserve" text-anchor="start" x="1013.25" y="-5.7" font-family="Helvetica,sans-Serif" font-size="14.00">value = 2.445</text>
</g>
<!-- 13&#45;&gt;14 -->
<g id="edge14" class="edge">
<title>13&#45;&gt;14</title>
<path fill="none" stroke="black" d="M1054.12,-88.68C1054.12,-80.99 1054.12,-72.76 1054.12,-64.9"/>
<polygon fill="black" stroke="black" points="1057.63,-64.91 1054.13,-54.91 1050.63,-64.91 1057.63,-64.91"/>
</g>
<!-- 15 -->
<g id="node16" class="node">
<title>15</title>
<path fill="#fae8da" stroke="black" d="M1285.25,-53C1285.25,-53 1159,-53 1159,-53 1153,-53 1147,-47 1147,-41 1147,-41 1147,-12 1147,-12 1147,-6 1153,0 1159,0 1159,0 1285.25,0 1285.25,0 1291.25,0 1297.25,-6 1297.25,-12 1297.25,-12 1297.25,-41 1297.25,-41 1297.25,-47 1291.25,-53 1285.25,-53"/>
<text xml:space="preserve" text-anchor="start" x="1155" y="-35.7" font-family="Helvetica,sans-Serif" font-size="14.00">squared_error = 0.297</text>
<text xml:space="preserve" text-anchor="start" x="1181.25" y="-20.7" font-family="Helvetica,sans-Serif" font-size="14.00">samples = 27</text>
<text xml:space="preserve" text-anchor="start" x="1181.25" y="-5.7" font-family="Helvetica,sans-Serif" font-size="14.00">value = 1.621</text>
</g>
<!-- 13&#45;&gt;15 -->
<g id="edge15" class="edge">
<title>13&#45;&gt;15</title>
<path fill="none" stroke="black" d="M1113.36,-88.68C1130.57,-79 1149.31,-68.46 1166.31,-58.9"/>
<polygon fill="black" stroke="black" points="1167.77,-62.09 1174.77,-54.14 1164.34,-55.99 1167.77,-62.09"/>
</g>
<!-- 17 -->
<g id="node18" class="node">
<title>17</title>
<path fill="#f2bf9a" stroke="black" d="M1702.25,-261C1702.25,-261 1576,-261 1576,-261 1570,-261 1564,-255 1564,-249 1564,-249 1564,-205 1564,-205 1564,-199 1570,-193 1576,-193 1576,-193 1702.25,-193 1702.25,-193 1708.25,-193 1714.25,-199 1714.25,-205 1714.25,-205 1714.25,-249 1714.25,-249 1714.25,-255 1708.25,-261 1702.25,-261"/>
<text xml:space="preserve" text-anchor="start" x="1583.25" y="-243.7" font-family="Helvetica,sans-Serif" font-size="14.00">AveOccup ≤ 2.583</text>
<text xml:space="preserve" text-anchor="start" x="1572" y="-228.7" font-family="Helvetica,sans-Serif" font-size="14.00">squared_error = 0.852</text>
<text xml:space="preserve" text-anchor="start" x="1598.25" y="-213.7" font-family="Helvetica,sans-Serif" font-size="14.00">samples = 20</text>
<text xml:space="preserve" text-anchor="start" x="1598.25" y="-198.7" font-family="Helvetica,sans-Serif" font-size="14.00">value = 2.971</text>
</g>
<!-- 16&#45;&gt;17 -->
<g id="edge17" class="edge">
<title>16&#45;&gt;17</title>
<path fill="none" stroke="black" d="M1639.12,-296.6C1639.12,-289.03 1639.12,-280.87 1639.12,-272.9"/>
<polygon fill="black" stroke="black" points="1642.63,-272.99 1639.13,-262.99 1635.63,-272.99 1642.63,-272.99"/>
</g>
<!-- 24 -->
<g id="node25" class="node">
<title>24</title>
<path fill="#e5833c" stroke="black" d="M1952.25,-261C1952.25,-261 1826,-261 1826,-261 1820,-261 1814,-255 1814,-249 1814,-249 1814,-205 1814,-205 1814,-199 1820,-193 1826,-193 1826,-193 1952.25,-193 1952.25,-193 1958.25,-193 1964.25,-199 1964.25,-205 1964.25,-205 1964.25,-249 1964.25,-249 1964.25,-255 1958.25,-261 1952.25,-261"/>
<text xml:space="preserve" text-anchor="start" x="1831.38" y="-243.7" font-family="Helvetica,sans-Serif" font-size="14.00">AveRooms ≤ 8.255</text>
<text xml:space="preserve" text-anchor="start" x="1822" y="-228.7" font-family="Helvetica,sans-Serif" font-size="14.00">squared_error = 0.016</text>
<text xml:space="preserve" text-anchor="start" x="1852" y="-213.7" font-family="Helvetica,sans-Serif" font-size="14.00">samples = 6</text>
<text xml:space="preserve" text-anchor="start" x="1848.25" y="-198.7" font-family="Helvetica,sans-Serif" font-size="14.00">value = 4.944</text>
</g>
<!-- 16&#45;&gt;24 -->
<g id="edge24" class="edge">
<title>16&#45;&gt;24</title>
<path fill="none" stroke="black" d="M1710.76,-300.77C1739.55,-289.03 1772.98,-275.39 1803.06,-263.11"/>
<polygon fill="black" stroke="black" points="1804.21,-266.42 1812.15,-259.41 1801.57,-259.94 1804.21,-266.42"/>
</g>
<!-- 18 -->
<g id="node19" class="node">
<title>18</title>
<path fill="#eda775" stroke="black" d="M1621.25,-157C1621.25,-157 1495,-157 1495,-157 1489,-157 1483,-151 1483,-145 1483,-145 1483,-101 1483,-101 1483,-95 1489,-89 1495,-89 1495,-89 1621.25,-89 1621.25,-89 1627.25,-89 1633.25,-95 1633.25,-101 1633.25,-101 1633.25,-145 1633.25,-145 1633.25,-151 1627.25,-157 1621.25,-157"/>
<text xml:space="preserve" text-anchor="start" x="1498.12" y="-139.7" font-family="Helvetica,sans-Serif" font-size="14.00">Longitude ≤ &#45;118.49</text>
<text xml:space="preserve" text-anchor="start" x="1491" y="-124.7" font-family="Helvetica,sans-Serif" font-size="14.00">squared_error = 0.284</text>
<text xml:space="preserve" text-anchor="start" x="1521" y="-109.7" font-family="Helvetica,sans-Serif" font-size="14.00">samples = 9</text>
<text xml:space="preserve" text-anchor="start" x="1517.25" y="-94.7" font-family="Helvetica,sans-Serif" font-size="14.00">value = 3.744</text>
</g>
<!-- 17&#45;&gt;18 -->
<g id="edge18" class="edge">
<title>17&#45;&gt;18</title>
<path fill="none" stroke="black" d="M1612.6,-192.6C1605.96,-184.24 1598.74,-175.15 1591.8,-166.41"/>
<polygon fill="black" stroke="black" points="1594.61,-164.31 1585.65,-158.66 1589.13,-168.67 1594.61,-164.31"/>
</g>
<!-- 21 -->
<g id="node22" class="node">
<title>21</title>
<path fill="#f6d2b8" stroke="black" d="M1789.25,-157C1789.25,-157 1663,-157 1663,-157 1657,-157 1651,-151 1651,-145 1651,-145 1651,-101 1651,-101 1651,-95 1657,-89 1663,-89 1663,-89 1789.25,-89 1789.25,-89 1795.25,-89 1801.25,-95 1801.25,-101 1801.25,-101 1801.25,-145 1801.25,-145 1801.25,-151 1795.25,-157 1789.25,-157"/>
<text xml:space="preserve" text-anchor="start" x="1666.12" y="-139.7" font-family="Helvetica,sans-Serif" font-size="14.00">Longitude ≤ &#45;122.11</text>
<text xml:space="preserve" text-anchor="start" x="1659" y="-124.7" font-family="Helvetica,sans-Serif" font-size="14.00">squared_error = 0.428</text>
<text xml:space="preserve" text-anchor="start" x="1685.25" y="-109.7" font-family="Helvetica,sans-Serif" font-size="14.00">samples = 11</text>
<text xml:space="preserve" text-anchor="start" x="1685.25" y="-94.7" font-family="Helvetica,sans-Serif" font-size="14.00">value = 2.339</text>
</g>
<!-- 17&#45;&gt;21 -->
<g id="edge21" class="edge">
<title>17&#45;&gt;21</title>
<path fill="none" stroke="black" d="M1667.61,-192.6C1674.82,-184.15 1682.66,-174.96 1690.19,-166.13"/>
<polygon fill="black" stroke="black" points="1692.77,-168.5 1696.59,-158.63 1687.44,-163.96 1692.77,-168.5"/>
</g>
<!-- 19 -->
<g id="node20" class="node">
<title>19</title>
<path fill="#eeaf81" stroke="black" d="M1453.25,-53C1453.25,-53 1327,-53 1327,-53 1321,-53 1315,-47 1315,-41 1315,-41 1315,-12 1315,-12 1315,-6 1321,0 1327,0 1327,0 1453.25,0 1453.25,0 1459.25,0 1465.25,-6 1465.25,-12 1465.25,-12 1465.25,-41 1465.25,-41 1465.25,-47 1459.25,-53 1453.25,-53"/>
<text xml:space="preserve" text-anchor="start" x="1323" y="-35.7" font-family="Helvetica,sans-Serif" font-size="14.00">squared_error = 0.038</text>
<text xml:space="preserve" text-anchor="start" x="1353" y="-20.7" font-family="Helvetica,sans-Serif" font-size="14.00">samples = 7</text>
<text xml:space="preserve" text-anchor="start" x="1353" y="-5.7" font-family="Helvetica,sans-Serif" font-size="14.00">value = 3.49</text>
</g>
<!-- 18&#45;&gt;19 -->
<g id="edge19" class="edge">
<title>18&#45;&gt;19</title>
<path fill="none" stroke="black" d="M1498.89,-88.68C1481.68,-79 1462.94,-68.46 1445.94,-58.9"/>
<polygon fill="black" stroke="black" points="1447.91,-55.99 1437.48,-54.14 1444.48,-62.09 1447.91,-55.99"/>
</g>
<!-- 20 -->
<g id="node21" class="node">
<title>20</title>
<path fill="#e78c4b" stroke="black" d="M1621.25,-53C1621.25,-53 1495,-53 1495,-53 1489,-53 1483,-47 1483,-41 1483,-41 1483,-12 1483,-12 1483,-6 1489,0 1495,0 1495,0 1621.25,0 1621.25,0 1627.25,0 1633.25,-6 1633.25,-12 1633.25,-12 1633.25,-41 1633.25,-41 1633.25,-47 1627.25,-53 1621.25,-53"/>
<text xml:space="preserve" text-anchor="start" x="1491" y="-35.7" font-family="Helvetica,sans-Serif" font-size="14.00">squared_error = 0.137</text>
<text xml:space="preserve" text-anchor="start" x="1521" y="-20.7" font-family="Helvetica,sans-Serif" font-size="14.00">samples = 2</text>
<text xml:space="preserve" text-anchor="start" x="1521" y="-5.7" font-family="Helvetica,sans-Serif" font-size="14.00">value = 4.63</text>
</g>
<!-- 18&#45;&gt;20 -->
<g id="edge20" class="edge">
<title>18&#45;&gt;20</title>
<path fill="none" stroke="black" d="M1558.12,-88.68C1558.12,-80.99 1558.12,-72.76 1558.12,-64.9"/>
<polygon fill="black" stroke="black" points="1561.63,-64.91 1558.13,-54.91 1554.63,-64.91 1561.63,-64.91"/>
</g>
<!-- 22 -->
<g id="node23" class="node">
<title>22</title>
<path fill="#efb286" stroke="black" d="M1789.25,-53C1789.25,-53 1663,-53 1663,-53 1657,-53 1651,-47 1651,-41 1651,-41 1651,-12 1651,-12 1651,-6 1657,0 1663,0 1663,0 1789.25,0 1789.25,0 1795.25,0 1801.25,-6 1801.25,-12 1801.25,-12 1801.25,-41 1801.25,-41 1801.25,-47 1795.25,-53 1789.25,-53"/>
<text xml:space="preserve" text-anchor="start" x="1659" y="-35.7" font-family="Helvetica,sans-Serif" font-size="14.00">squared_error = 0.016</text>
<text xml:space="preserve" text-anchor="start" x="1689" y="-20.7" font-family="Helvetica,sans-Serif" font-size="14.00">samples = 2</text>
<text xml:space="preserve" text-anchor="start" x="1685.25" y="-5.7" font-family="Helvetica,sans-Serif" font-size="14.00">value = 3.383</text>
</g>
<!-- 21&#45;&gt;22 -->
<g id="edge22" class="edge">
<title>21&#45;&gt;22</title>
<path fill="none" stroke="black" d="M1726.12,-88.68C1726.12,-80.99 1726.12,-72.76 1726.12,-64.9"/>
<polygon fill="black" stroke="black" points="1729.63,-64.91 1726.13,-54.91 1722.63,-64.91 1729.63,-64.91"/>
</g>
<!-- 23 -->
<g id="node24" class="node">
<title>23</title>
<path fill="#f7d9c3" stroke="black" d="M1957.25,-53C1957.25,-53 1831,-53 1831,-53 1825,-53 1819,-47 1819,-41 1819,-41 1819,-12 1819,-12 1819,-6 1825,0 1831,0 1831,0 1957.25,0 1957.25,0 1963.25,0 1969.25,-6 1969.25,-12 1969.25,-12 1969.25,-41 1969.25,-41 1969.25,-47 1963.25,-53 1957.25,-53"/>
<text xml:space="preserve" text-anchor="start" x="1827" y="-35.7" font-family="Helvetica,sans-Serif" font-size="14.00">squared_error = 0.224</text>
<text xml:space="preserve" text-anchor="start" x="1857" y="-20.7" font-family="Helvetica,sans-Serif" font-size="14.00">samples = 9</text>
<text xml:space="preserve" text-anchor="start" x="1853.25" y="-5.7" font-family="Helvetica,sans-Serif" font-size="14.00">value = 2.107</text>
</g>
<!-- 21&#45;&gt;23 -->
<g id="edge23" class="edge">
<title>21&#45;&gt;23</title>
<path fill="none" stroke="black" d="M1785.36,-88.68C1802.57,-79 1821.31,-68.46 1838.31,-58.9"/>
<polygon fill="black" stroke="black" points="1839.77,-62.09 1846.77,-54.14 1836.34,-55.99 1839.77,-62.09"/>
</g>
<!-- 25 -->
<g id="node26" class="node">
<title>25</title>
<path fill="#e58139" stroke="black" d="M1947,-149.5C1947,-149.5 1831.25,-149.5 1831.25,-149.5 1825.25,-149.5 1819.25,-143.5 1819.25,-137.5 1819.25,-137.5 1819.25,-108.5 1819.25,-108.5 1819.25,-102.5 1825.25,-96.5 1831.25,-96.5 1831.25,-96.5 1947,-96.5 1947,-96.5 1953,-96.5 1959,-102.5 1959,-108.5 1959,-108.5 1959,-137.5 1959,-137.5 1959,-143.5 1953,-149.5 1947,-149.5"/>
<text xml:space="preserve" text-anchor="start" x="1827.25" y="-132.2" font-family="Helvetica,sans-Serif" font-size="14.00">squared_error = &#45;0.0</text>
<text xml:space="preserve" text-anchor="start" x="1852" y="-117.2" font-family="Helvetica,sans-Serif" font-size="14.00">samples = 5</text>
<text xml:space="preserve" text-anchor="start" x="1855.75" y="-102.2" font-family="Helvetica,sans-Serif" font-size="14.00">value = 5.0</text>
</g>
<!-- 24&#45;&gt;25 -->
<g id="edge25" class="edge">
<title>24&#45;&gt;25</title>
<path fill="none" stroke="black" d="M1889.12,-192.6C1889.12,-182.47 1889.12,-171.28 1889.12,-160.93"/>
<polygon fill="black" stroke="black" points="1892.63,-161.22 1889.13,-151.22 1885.63,-161.22 1892.63,-161.22"/>
</g>
<!-- 26 -->
<g id="node27" class="node">
<title>26</title>
<path fill="#e78b49" stroke="black" d="M2100.75,-149.5C2100.75,-149.5 1989.5,-149.5 1989.5,-149.5 1983.5,-149.5 1977.5,-143.5 1977.5,-137.5 1977.5,-137.5 1977.5,-108.5 1977.5,-108.5 1977.5,-102.5 1983.5,-96.5 1989.5,-96.5 1989.5,-96.5 2100.75,-96.5 2100.75,-96.5 2106.75,-96.5 2112.75,-102.5 2112.75,-108.5 2112.75,-108.5 2112.75,-137.5 2112.75,-137.5 2112.75,-143.5 2106.75,-149.5 2100.75,-149.5"/>
<text xml:space="preserve" text-anchor="start" x="1985.5" y="-132.2" font-family="Helvetica,sans-Serif" font-size="14.00">squared_error = 0.0</text>
<text xml:space="preserve" text-anchor="start" x="2008" y="-117.2" font-family="Helvetica,sans-Serif" font-size="14.00">samples = 1</text>
<text xml:space="preserve" text-anchor="start" x="2004.25" y="-102.2" font-family="Helvetica,sans-Serif" font-size="14.00">value = 4.661</text>
</g>
<!-- 24&#45;&gt;26 -->
<g id="edge26" class="edge">
<title>24&#45;&gt;26</title>
<path fill="none" stroke="black" d="M1940.21,-192.6C1958.12,-180.89 1978.2,-167.76 1995.96,-156.14"/>
<polygon fill="black" stroke="black" points="1997.84,-159.1 2004.29,-150.7 1994.01,-153.24 1997.84,-159.1"/>
</g>
</g>
</svg>
