<?xml version="1.0" encoding="UTF-8" standalone="no"?>
<!DOCTYPE svg PUBLIC "-//W3C//DTD SVG 1.1//EN"
 "http://www.w3.org/Graphics/SVG/1.1/DTD/svg11.dtd">
<!-- Generated by graphviz version 13.1.2 (20250808.2320)
 -->
<!-- Title: Tree Pages: 1 -->
<svg width="1746pt" height="477pt"
 viewBox="0.00 0.00 1746.00 477.00" xmlns="http://www.w3.org/2000/svg" xmlns:xlink="http://www.w3.org/1999/xlink">
<g id="graph0" class="graph" transform="scale(1 1) rotate(0) translate(4 473)">
<title>Tree</title>
<polygon fill="white" stroke="none" points="-4,4 -4,-473 1742.25,-473 1742.25,4 -4,4"/>
<!-- 0 -->
<g id="node1" class="node">
<title>0</title>
<path fill="#f7d9c4" stroke="black" d="M810.75,-469C810.75,-469 684.5,-469 684.5,-469 678.5,-469 672.5,-463 672.5,-457 672.5,-457 672.5,-413 672.5,-413 672.5,-407 678.5,-401 684.5,-401 684.5,-401 810.75,-401 810.75,-401 816.75,-401 822.75,-407 822.75,-413 822.75,-413 822.75,-457 822.75,-457 822.75,-463 816.75,-469 810.75,-469"/>
<text xml:space="preserve" text-anchor="start" x="700.75" y="-451.7" font-family="Helvetica,sans-Serif" font-size="14.00">MedInc ≤ 3.104</text>
<text xml:space="preserve" text-anchor="start" x="680.5" y="-436.7" font-family="Helvetica,sans-Serif" font-size="14.00">squared_error = 1.278</text>
<text xml:space="preserve" text-anchor="start" x="703" y="-421.7" font-family="Helvetica,sans-Serif" font-size="14.00">samples = 128</text>
<text xml:space="preserve" text-anchor="start" x="706.75" y="-406.7" font-family="Helvetica,sans-Serif" font-size="14.00">value = 2.181</text>
</g>
<!-- 1 -->
<g id="node2" class="node">
<title>1</title>
<path fill="#fdf5ef" stroke="black" d="M723,-365C723,-365 604.25,-365 604.25,-365 598.25,-365 592.25,-359 592.25,-353 592.25,-353 592.25,-309 592.25,-309 592.25,-303 598.25,-297 604.25,-297 604.25,-297 723,-297 723,-297 729,-297 735,-303 735,-309 735,-309 735,-353 735,-353 735,-359 729,-365 723,-365"/>
<text xml:space="preserve" text-anchor="start" x="611.5" y="-347.7" font-family="Helvetica,sans-Serif" font-size="14.00">HouseAge ≤ 51.5</text>
<text xml:space="preserve" text-anchor="start" x="600.25" y="-332.7" font-family="Helvetica,sans-Serif" font-size="14.00">squared_error = 0.47</text>
<text xml:space="preserve" text-anchor="start" x="622.75" y="-317.7" font-family="Helvetica,sans-Serif" font-size="14.00">samples = 43</text>
<text xml:space="preserve" text-anchor="start" x="630.25" y="-302.7" font-family="Helvetica,sans-Serif" font-size="14.00">value = 1.3</text>
</g>
<!-- 0&#45;&gt;1 -->
<g id="edge1" class="edge">
<title>0&#45;&gt;1</title>
<path fill="none" stroke="black" d="M720.12,-400.6C713.16,-392.15 705.59,-382.96 698.32,-374.13"/>
<polygon fill="black" stroke="black" points="701.21,-372.14 692.15,-366.64 695.81,-376.59 701.21,-372.14"/>
<text xml:space="preserve" text-anchor="middle" x="688.78" y="-384.56" font-family="Helvetica,sans-Serif" font-size="14.00">True</text>
</g>
<!-- 12 -->
<g id="node13" class="node">
<title>12</title>
<path fill="#f4cbae" stroke="black" d="M957.75,-365C957.75,-365 831.5,-365 831.5,-365 825.5,-365 819.5,-359 819.5,-353 819.5,-353 819.5,-309 819.5,-309 819.5,-303 825.5,-297 831.5,-297 831.5,-297 957.75,-297 957.75,-297 963.75,-297 969.75,-303 969.75,-309 969.75,-309 969.75,-353 969.75,-353 969.75,-359 963.75,-365 957.75,-365"/>
<text xml:space="preserve" text-anchor="start" x="838.75" y="-347.7" font-family="Helvetica,sans-Serif" font-size="14.00">AveOccup ≤ 2.056</text>
<text xml:space="preserve" text-anchor="start" x="827.5" y="-332.7" font-family="Helvetica,sans-Serif" font-size="14.00">squared_error = 1.096</text>
<text xml:space="preserve" text-anchor="start" x="853.75" y="-317.7" font-family="Helvetica,sans-Serif" font-size="14.00">samples = 85</text>
<text xml:space="preserve" text-anchor="start" x="853.75" y="-302.7" font-family="Helvetica,sans-Serif" font-size="14.00">value = 2.627</text>
</g>
<!-- 0&#45;&gt;12 -->
<g id="edge12" class="edge">
<title>0&#45;&gt;12</title>
<path fill="none" stroke="black" d="M795.76,-400.6C808.96,-391.44 823.4,-381.42 837.07,-371.94"/>
<polygon fill="black" stroke="black" points="838.92,-374.91 845.14,-366.34 834.93,-369.16 838.92,-374.91"/>
<text xml:space="preserve" text-anchor="middle" x="841.94" y="-384.28" font-family="Helvetica,sans-Serif" font-size="14.00">False</text>
</g>
<!-- 2 -->
<g id="node3" class="node">
<title>2</title>
<path fill="#fef9f5" stroke="black" d="M455.75,-261C455.75,-261 329.5,-261 329.5,-261 323.5,-261 317.5,-255 317.5,-249 317.5,-249 317.5,-205 317.5,-205 317.5,-199 323.5,-193 329.5,-193 329.5,-193 455.75,-193 455.75,-193 461.75,-193 467.75,-199 467.75,-205 467.75,-205 467.75,-249 467.75,-249 467.75,-255 461.75,-261 455.75,-261"/>
<text xml:space="preserve" text-anchor="start" x="344.25" y="-243.7" font-family="Helvetica,sans-Serif" font-size="14.00">Latitude ≤ 34.05</text>
<text xml:space="preserve" text-anchor="start" x="325.5" y="-228.7" font-family="Helvetica,sans-Serif" font-size="14.00">squared_error = 0.228</text>
<text xml:space="preserve" text-anchor="start" x="351.75" y="-213.7" font-family="Helvetica,sans-Serif" font-size="14.00">samples = 41</text>
<text xml:space="preserve" text-anchor="start" x="351.75" y="-198.7" font-family="Helvetica,sans-Serif" font-size="14.00">value = 1.189</text>
</g>
<!-- 1&#45;&gt;2 -->
<g id="edge2" class="edge">
<title>1&#45;&gt;2</title>
<path fill="none" stroke="black" d="M592.07,-303.07C557.24,-289.96 515.11,-274.1 478.55,-260.34"/>
<polygon fill="black" stroke="black" points="479.91,-257.11 469.32,-256.87 477.45,-263.66 479.91,-257.11"/>
</g>
<!-- 9 -->
<g id="node10" class="node">
<title>9</title>
<path fill="#eeae80" stroke="black" d="M726.75,-261C726.75,-261 600.5,-261 600.5,-261 594.5,-261 588.5,-255 588.5,-249 588.5,-249 588.5,-205 588.5,-205 588.5,-199 594.5,-193 600.5,-193 600.5,-193 726.75,-193 726.75,-193 732.75,-193 738.75,-199 738.75,-205 738.75,-205 738.75,-249 738.75,-249 738.75,-255 732.75,-261 726.75,-261"/>
<text xml:space="preserve" text-anchor="start" x="604" y="-243.7" font-family="Helvetica,sans-Serif" font-size="14.00">AveBedrms ≤ 1.148</text>
<text xml:space="preserve" text-anchor="start" x="596.5" y="-228.7" font-family="Helvetica,sans-Serif" font-size="14.00">squared_error = 0.033</text>
<text xml:space="preserve" text-anchor="start" x="626.5" y="-213.7" font-family="Helvetica,sans-Serif" font-size="14.00">samples = 2</text>
<text xml:space="preserve" text-anchor="start" x="622.75" y="-198.7" font-family="Helvetica,sans-Serif" font-size="14.00">value = 3.569</text>
</g>
<!-- 1&#45;&gt;9 -->
<g id="edge9" class="edge">
<title>1&#45;&gt;9</title>
<path fill="none" stroke="black" d="M663.62,-296.6C663.62,-289.03 663.62,-280.87 663.62,-272.9"/>
<polygon fill="black" stroke="black" points="667.13,-272.99 663.63,-262.99 660.13,-272.99 667.13,-272.99"/>
</g>
<!-- 3 -->
<g id="node4" class="node">
<title>3</title>
<path fill="#fceee5" stroke="black" d="M290.75,-157C290.75,-157 164.5,-157 164.5,-157 158.5,-157 152.5,-151 152.5,-145 152.5,-145 152.5,-101 152.5,-101 152.5,-95 158.5,-89 164.5,-89 164.5,-89 290.75,-89 290.75,-89 296.75,-89 302.75,-95 302.75,-101 302.75,-101 302.75,-145 302.75,-145 302.75,-151 296.75,-157 290.75,-157"/>
<text xml:space="preserve" text-anchor="start" x="163.88" y="-139.7" font-family="Helvetica,sans-Serif" font-size="14.00">Longitude ≤ &#45;118.405</text>
<text xml:space="preserve" text-anchor="start" x="160.5" y="-124.7" font-family="Helvetica,sans-Serif" font-size="14.00">squared_error = 0.234</text>
<text xml:space="preserve" text-anchor="start" x="186.75" y="-109.7" font-family="Helvetica,sans-Serif" font-size="14.00">samples = 13</text>
<text xml:space="preserve" text-anchor="start" x="186.75" y="-94.7" font-family="Helvetica,sans-Serif" font-size="14.00">value = 1.521</text>
</g>
<!-- 2&#45;&gt;3 -->
<g id="edge3" class="edge">
<title>2&#45;&gt;3</title>
<path fill="none" stroke="black" d="M338.6,-192.6C323.5,-183.27 306.95,-173.04 291.35,-163.39"/>
<polygon fill="black" stroke="black" points="293.41,-160.55 283.06,-158.27 289.73,-166.5 293.41,-160.55"/>
</g>
<!-- 6 -->
<g id="node7" class="node">
<title>6</title>
<path fill="#fffdfc" stroke="black" d="M452.38,-157C452.38,-157 332.88,-157 332.88,-157 326.88,-157 320.88,-151 320.88,-145 320.88,-145 320.88,-101 320.88,-101 320.88,-95 326.88,-89 332.88,-89 332.88,-89 452.38,-89 452.38,-89 458.38,-89 464.38,-95 464.38,-101 464.38,-101 464.38,-145 464.38,-145 464.38,-151 458.38,-157 452.38,-157"/>
<text xml:space="preserve" text-anchor="start" x="328.88" y="-139.7" font-family="Helvetica,sans-Serif" font-size="14.00">Longitude ≤ &#45;122.345</text>
<text xml:space="preserve" text-anchor="start" x="329.25" y="-124.7" font-family="Helvetica,sans-Serif" font-size="14.00">squared_error = 0.15</text>
<text xml:space="preserve" text-anchor="start" x="351.75" y="-109.7" font-family="Helvetica,sans-Serif" font-size="14.00">samples = 28</text>
<text xml:space="preserve" text-anchor="start" x="351.75" y="-94.7" font-family="Helvetica,sans-Serif" font-size="14.00">value = 1.035</text>
</g>
<!-- 2&#45;&gt;6 -->
<g id="edge6" class="edge">
<title>2&#45;&gt;6</title>
<path fill="none" stroke="black" d="M392.62,-192.6C392.62,-185.03 392.62,-176.87 392.62,-168.9"/>
<polygon fill="black" stroke="black" points="396.13,-168.99 392.63,-158.99 389.13,-168.99 396.13,-168.99"/>
</g>
<!-- 4 -->
<g id="node5" class="node">
<title>4</title>
<path fill="#f3c4a3" stroke="black" d="M123.25,-53C123.25,-53 12,-53 12,-53 6,-53 0,-47 0,-41 0,-41 0,-12 0,-12 0,-6 6,0 12,0 12,0 123.25,0 123.25,0 129.25,0 135.25,-6 135.25,-12 135.25,-12 135.25,-41 135.25,-41 135.25,-47 129.25,-53 123.25,-53"/>
<text xml:space="preserve" text-anchor="start" x="8" y="-35.7" font-family="Helvetica,sans-Serif" font-size="14.00">squared_error = 0.0</text>
<text xml:space="preserve" text-anchor="start" x="30.5" y="-20.7" font-family="Helvetica,sans-Serif" font-size="14.00">samples = 1</text>
<text xml:space="preserve" text-anchor="start" x="30.5" y="-5.7" font-family="Helvetica,sans-Serif" font-size="14.00">value = 2.85</text>
</g>
<!-- 3&#45;&gt;4 -->
<g id="edge4" class="edge">
<title>3&#45;&gt;4</title>
<path fill="none" stroke="black" d="M171.21,-88.68C154.97,-79.09 137.31,-68.65 121.24,-59.16"/>
<polygon fill="black" stroke="black" points="123.16,-56.24 112.77,-54.16 119.6,-62.26 123.16,-56.24"/>
</g>
<!-- 5 -->
<g id="node6" class="node">
<title>5</title>
<path fill="#fcf2ea" stroke="black" d="M291.75,-53C291.75,-53 165.5,-53 165.5,-53 159.5,-53 153.5,-47 153.5,-41 153.5,-41 153.5,-12 153.5,-12 153.5,-6 159.5,0 165.5,0 165.5,0 291.75,0 291.75,0 297.75,0 303.75,-6 303.75,-12 303.75,-12 303.75,-41 303.75,-41 303.75,-47 297.75,-53 291.75,-53"/>
<text xml:space="preserve" text-anchor="start" x="161.5" y="-35.7" font-family="Helvetica,sans-Serif" font-size="14.00">squared_error = 0.094</text>
<text xml:space="preserve" text-anchor="start" x="187.75" y="-20.7" font-family="Helvetica,sans-Serif" font-size="14.00">samples = 12</text>
<text xml:space="preserve" text-anchor="start" x="191.5" y="-5.7" font-family="Helvetica,sans-Serif" font-size="14.00">value = 1.41</text>
</g>
<!-- 3&#45;&gt;5 -->
<g id="edge5" class="edge">
<title>3&#45;&gt;5</title>
<path fill="none" stroke="black" d="M227.98,-88.68C228.06,-80.99 228.15,-72.76 228.23,-64.9"/>
<polygon fill="black" stroke="black" points="231.73,-64.94 228.33,-54.91 224.73,-64.87 231.73,-64.94"/>
</g>
<!-- 7 -->
<g id="node8" class="node">
<title>7</title>
<path fill="#f6d2b8" stroke="black" d="M447.25,-53C447.25,-53 336,-53 336,-53 330,-53 324,-47 324,-41 324,-41 324,-12 324,-12 324,-6 330,0 336,0 336,0 447.25,0 447.25,0 453.25,0 459.25,-6 459.25,-12 459.25,-12 459.25,-41 459.25,-41 459.25,-47 453.25,-53 447.25,-53"/>
<text xml:space="preserve" text-anchor="start" x="332" y="-35.7" font-family="Helvetica,sans-Serif" font-size="14.00">squared_error = 0.0</text>
<text xml:space="preserve" text-anchor="start" x="354.5" y="-20.7" font-family="Helvetica,sans-Serif" font-size="14.00">samples = 1</text>
<text xml:space="preserve" text-anchor="start" x="350.75" y="-5.7" font-family="Helvetica,sans-Serif" font-size="14.00">value = 2.425</text>
</g>
<!-- 6&#45;&gt;7 -->
<g id="edge7" class="edge">
<title>6&#45;&gt;7</title>
<path fill="none" stroke="black" d="M392.27,-88.68C392.19,-80.99 392.1,-72.76 392.02,-64.9"/>
<polygon fill="black" stroke="black" points="395.52,-64.87 391.92,-54.91 388.52,-64.94 395.52,-64.87"/>
</g>
<!-- 8 -->
<g id="node9" class="node">
<title>8</title>
<path fill="#ffffff" stroke="black" d="M615.75,-53C615.75,-53 489.5,-53 489.5,-53 483.5,-53 477.5,-47 477.5,-41 477.5,-41 477.5,-12 477.5,-12 477.5,-6 483.5,0 489.5,0 489.5,0 615.75,0 615.75,0 621.75,0 627.75,-6 627.75,-12 627.75,-12 627.75,-41 627.75,-41 627.75,-47 621.75,-53 615.75,-53"/>
<text xml:space="preserve" text-anchor="start" x="485.5" y="-35.7" font-family="Helvetica,sans-Serif" font-size="14.00">squared_error = 0.082</text>
<text xml:space="preserve" text-anchor="start" x="511.75" y="-20.7" font-family="Helvetica,sans-Serif" font-size="14.00">samples = 27</text>
<text xml:space="preserve" text-anchor="start" x="511.75" y="-5.7" font-family="Helvetica,sans-Serif" font-size="14.00">value = 0.984</text>
</g>
<!-- 6&#45;&gt;8 -->
<g id="edge8" class="edge">
<title>6&#45;&gt;8</title>
<path fill="none" stroke="black" d="M449.04,-88.68C465.28,-79.09 482.94,-68.65 499.01,-59.16"/>
<polygon fill="black" stroke="black" points="500.65,-62.26 507.48,-54.16 497.09,-56.24 500.65,-62.26"/>
</g>
<!-- 10 -->
<g id="node11" class="node">
<title>10</title>
<path fill="#efb488" stroke="black" d="M605.25,-149.5C605.25,-149.5 494,-149.5 494,-149.5 488,-149.5 482,-143.5 482,-137.5 482,-137.5 482,-108.5 482,-108.5 482,-102.5 488,-96.5 494,-96.5 494,-96.5 605.25,-96.5 605.25,-96.5 611.25,-96.5 617.25,-102.5 617.25,-108.5 617.25,-108.5 617.25,-137.5 617.25,-137.5 617.25,-143.5 611.25,-149.5 605.25,-149.5"/>
<text xml:space="preserve" text-anchor="start" x="490" y="-132.2" font-family="Helvetica,sans-Serif" font-size="14.00">squared_error = 0.0</text>
<text xml:space="preserve" text-anchor="start" x="512.5" y="-117.2" font-family="Helvetica,sans-Serif" font-size="14.00">samples = 1</text>
<text xml:space="preserve" text-anchor="start" x="508.75" y="-102.2" font-family="Helvetica,sans-Serif" font-size="14.00">value = 3.389</text>
</g>
<!-- 9&#45;&gt;10 -->
<g id="edge10" class="edge">
<title>9&#45;&gt;10</title>
<path fill="none" stroke="black" d="M626.3,-192.6C613.63,-181.27 599.5,-168.62 586.84,-157.3"/>
<polygon fill="black" stroke="black" points="589.27,-154.77 579.48,-150.72 584.6,-159.99 589.27,-154.77"/>
</g>
<!-- 11 -->
<g id="node12" class="node">
<title>11</title>
<path fill="#eda877" stroke="black" d="M758.25,-149.5C758.25,-149.5 647,-149.5 647,-149.5 641,-149.5 635,-143.5 635,-137.5 635,-137.5 635,-108.5 635,-108.5 635,-102.5 641,-96.5 647,-96.5 647,-96.5 758.25,-96.5 758.25,-96.5 764.25,-96.5 770.25,-102.5 770.25,-108.5 770.25,-108.5 770.25,-137.5 770.25,-137.5 770.25,-143.5 764.25,-149.5 758.25,-149.5"/>
<text xml:space="preserve" text-anchor="start" x="643" y="-132.2" font-family="Helvetica,sans-Serif" font-size="14.00">squared_error = 0.0</text>
<text xml:space="preserve" text-anchor="start" x="665.5" y="-117.2" font-family="Helvetica,sans-Serif" font-size="14.00">samples = 1</text>
<text xml:space="preserve" text-anchor="start" x="665.5" y="-102.2" font-family="Helvetica,sans-Serif" font-size="14.00">value = 3.75</text>
</g>
<!-- 9&#45;&gt;11 -->
<g id="edge11" class="edge">
<title>9&#45;&gt;11</title>
<path fill="none" stroke="black" d="M676.4,-192.6C680.35,-182.25 684.73,-170.8 688.76,-160.27"/>
<polygon fill="black" stroke="black" points="691.95,-161.71 692.26,-151.12 685.42,-159.21 691.95,-161.71"/>
</g>
<!-- 13 -->
<g id="node14" class="node">
<title>13</title>
<path fill="#eba06a" stroke="black" d="M957.75,-261C957.75,-261 831.5,-261 831.5,-261 825.5,-261 819.5,-255 819.5,-249 819.5,-249 819.5,-205 819.5,-205 819.5,-199 825.5,-193 831.5,-193 831.5,-193 957.75,-193 957.75,-193 963.75,-193 969.75,-199 969.75,-205 969.75,-205 969.75,-249 969.75,-249 969.75,-255 963.75,-261 957.75,-261"/>
<text xml:space="preserve" text-anchor="start" x="842.5" y="-243.7" font-family="Helvetica,sans-Serif" font-size="14.00">HouseAge ≤ 13.0</text>
<text xml:space="preserve" text-anchor="start" x="827.5" y="-228.7" font-family="Helvetica,sans-Serif" font-size="14.00">squared_error = 0.616</text>
<text xml:space="preserve" text-anchor="start" x="853.75" y="-213.7" font-family="Helvetica,sans-Serif" font-size="14.00">samples = 11</text>
<text xml:space="preserve" text-anchor="start" x="861.25" y="-198.7" font-family="Helvetica,sans-Serif" font-size="14.00">value = 4.0</text>
</g>
<!-- 12&#45;&gt;13 -->
<g id="edge13" class="edge">
<title>12&#45;&gt;13</title>
<path fill="none" stroke="black" d="M894.62,-296.6C894.62,-289.03 894.62,-280.87 894.62,-272.9"/>
<polygon fill="black" stroke="black" points="898.13,-272.99 894.63,-262.99 891.13,-272.99 898.13,-272.99"/>
</g>
<!-- 18 -->
<g id="node19" class="node">
<title>18</title>
<path fill="#f6d2b8" stroke="black" d="M1322.75,-261C1322.75,-261 1196.5,-261 1196.5,-261 1190.5,-261 1184.5,-255 1184.5,-249 1184.5,-249 1184.5,-205 1184.5,-205 1184.5,-199 1190.5,-193 1196.5,-193 1196.5,-193 1322.75,-193 1322.75,-193 1328.75,-193 1334.75,-199 1334.75,-205 1334.75,-205 1334.75,-249 1334.75,-249 1334.75,-255 1328.75,-261 1322.75,-261"/>
<text xml:space="preserve" text-anchor="start" x="1212.75" y="-243.7" font-family="Helvetica,sans-Serif" font-size="14.00">MedInc ≤ 6.924</text>
<text xml:space="preserve" text-anchor="start" x="1192.5" y="-228.7" font-family="Helvetica,sans-Serif" font-size="14.00">squared_error = 0.845</text>
<text xml:space="preserve" text-anchor="start" x="1218.75" y="-213.7" font-family="Helvetica,sans-Serif" font-size="14.00">samples = 74</text>
<text xml:space="preserve" text-anchor="start" x="1218.75" y="-198.7" font-family="Helvetica,sans-Serif" font-size="14.00">value = 2.423</text>
</g>
<!-- 12&#45;&gt;18 -->
<g id="edge18" class="edge">
<title>12&#45;&gt;18</title>
<path fill="none" stroke="black" d="M969.81,-308.99C1028.97,-292.46 1111.46,-269.4 1173.32,-252.12"/>
<polygon fill="black" stroke="black" points="1174.08,-255.54 1182.77,-249.48 1172.19,-248.8 1174.08,-255.54"/>
</g>
<!-- 14 -->
<g id="node15" class="node">
<title>14</title>
<path fill="#f7d7c1" stroke="black" d="M911.25,-149.5C911.25,-149.5 800,-149.5 800,-149.5 794,-149.5 788,-143.5 788,-137.5 788,-137.5 788,-108.5 788,-108.5 788,-102.5 794,-96.5 800,-96.5 800,-96.5 911.25,-96.5 911.25,-96.5 917.25,-96.5 923.25,-102.5 923.25,-108.5 923.25,-108.5 923.25,-137.5 923.25,-137.5 923.25,-143.5 917.25,-149.5 911.25,-149.5"/>
<text xml:space="preserve" text-anchor="start" x="796" y="-132.2" font-family="Helvetica,sans-Serif" font-size="14.00">squared_error = 0.0</text>
<text xml:space="preserve" text-anchor="start" x="818.5" y="-117.2" font-family="Helvetica,sans-Serif" font-size="14.00">samples = 1</text>
<text xml:space="preserve" text-anchor="start" x="818.5" y="-102.2" font-family="Helvetica,sans-Serif" font-size="14.00">value = 2.25</text>
</g>
<!-- 13&#45;&gt;14 -->
<g id="edge14" class="edge">
<title>13&#45;&gt;14</title>
<path fill="none" stroke="black" d="M881.85,-192.6C877.9,-182.25 873.52,-170.8 869.49,-160.27"/>
<polygon fill="black" stroke="black" points="872.83,-159.21 865.99,-151.12 866.3,-161.71 872.83,-159.21"/>
</g>
<!-- 15 -->
<g id="node16" class="node">
<title>15</title>
<path fill="#ea9b62" stroke="black" d="M1072,-157C1072,-157 953.25,-157 953.25,-157 947.25,-157 941.25,-151 941.25,-145 941.25,-145 941.25,-101 941.25,-101 941.25,-95 947.25,-89 953.25,-89 953.25,-89 1072,-89 1072,-89 1078,-89 1084,-95 1084,-101 1084,-101 1084,-145 1084,-145 1084,-151 1078,-157 1072,-157"/>
<text xml:space="preserve" text-anchor="start" x="965.75" y="-139.7" font-family="Helvetica,sans-Serif" font-size="14.00">MedInc ≤ 4.662</text>
<text xml:space="preserve" text-anchor="start" x="949.25" y="-124.7" font-family="Helvetica,sans-Serif" font-size="14.00">squared_error = 0.34</text>
<text xml:space="preserve" text-anchor="start" x="971.75" y="-109.7" font-family="Helvetica,sans-Serif" font-size="14.00">samples = 10</text>
<text xml:space="preserve" text-anchor="start" x="971.75" y="-94.7" font-family="Helvetica,sans-Serif" font-size="14.00">value = 4.175</text>
</g>
<!-- 13&#45;&gt;15 -->
<g id="edge15" class="edge">
<title>13&#45;&gt;15</title>
<path fill="none" stroke="black" d="M933.26,-192.6C943.55,-183.71 954.78,-174 965.47,-164.76"/>
<polygon fill="black" stroke="black" points="967.48,-167.65 972.76,-158.46 962.9,-162.36 967.48,-167.65"/>
</g>
<!-- 16 -->
<g id="node17" class="node">
<title>16</title>
<path fill="#eca16c" stroke="black" d="M914.75,-53C914.75,-53 788.5,-53 788.5,-53 782.5,-53 776.5,-47 776.5,-41 776.5,-41 776.5,-12 776.5,-12 776.5,-6 782.5,0 788.5,0 788.5,0 914.75,0 914.75,0 920.75,0 926.75,-6 926.75,-12 926.75,-12 926.75,-41 926.75,-41 926.75,-47 920.75,-53 914.75,-53"/>
<text xml:space="preserve" text-anchor="start" x="784.5" y="-35.7" font-family="Helvetica,sans-Serif" font-size="14.00">squared_error = 0.213</text>
<text xml:space="preserve" text-anchor="start" x="814.5" y="-20.7" font-family="Helvetica,sans-Serif" font-size="14.00">samples = 8</text>
<text xml:space="preserve" text-anchor="start" x="810.75" y="-5.7" font-family="Helvetica,sans-Serif" font-size="14.00">value = 3.969</text>
</g>
<!-- 15&#45;&gt;16 -->
<g id="edge16" class="edge">
<title>15&#45;&gt;16</title>
<path fill="none" stroke="black" d="M955.86,-88.68C939.52,-79.09 921.74,-68.65 905.57,-59.16"/>
<polygon fill="black" stroke="black" points="907.44,-56.2 897.05,-54.16 903.9,-62.24 907.44,-56.2"/>
</g>
<!-- 17 -->
<g id="node18" class="node">
<title>17</title>
<path fill="#e58139" stroke="black" d="M1068.25,-53C1068.25,-53 957,-53 957,-53 951,-53 945,-47 945,-41 945,-41 945,-12 945,-12 945,-6 951,0 957,0 957,0 1068.25,0 1068.25,0 1074.25,0 1080.25,-6 1080.25,-12 1080.25,-12 1080.25,-41 1080.25,-41 1080.25,-47 1074.25,-53 1068.25,-53"/>
<text xml:space="preserve" text-anchor="start" x="953" y="-35.7" font-family="Helvetica,sans-Serif" font-size="14.00">squared_error = 0.0</text>
<text xml:space="preserve" text-anchor="start" x="975.5" y="-20.7" font-family="Helvetica,sans-Serif" font-size="14.00">samples = 2</text>
<text xml:space="preserve" text-anchor="start" x="979.25" y="-5.7" font-family="Helvetica,sans-Serif" font-size="14.00">value = 5.0</text>
</g>
<!-- 15&#45;&gt;17 -->
<g id="edge17" class="edge">
<title>15&#45;&gt;17</title>
<path fill="none" stroke="black" d="M1012.62,-88.68C1012.62,-80.99 1012.62,-72.76 1012.62,-64.9"/>
<polygon fill="black" stroke="black" points="1016.13,-64.91 1012.63,-54.91 1009.13,-64.91 1016.13,-64.91"/>
</g>
<!-- 19 -->
<g id="node20" class="node">
<title>19</title>
<path fill="#f7d7c0" stroke="black" d="M1322.75,-157C1322.75,-157 1196.5,-157 1196.5,-157 1190.5,-157 1184.5,-151 1184.5,-145 1184.5,-145 1184.5,-101 1184.5,-101 1184.5,-95 1190.5,-89 1196.5,-89 1196.5,-89 1322.75,-89 1322.75,-89 1328.75,-89 1334.75,-95 1334.75,-101 1334.75,-101 1334.75,-145 1334.75,-145 1334.75,-151 1328.75,-157 1322.75,-157"/>
<text xml:space="preserve" text-anchor="start" x="1212.75" y="-139.7" font-family="Helvetica,sans-Serif" font-size="14.00">MedInc ≤ 4.719</text>
<text xml:space="preserve" text-anchor="start" x="1192.5" y="-124.7" font-family="Helvetica,sans-Serif" font-size="14.00">squared_error = 0.494</text>
<text xml:space="preserve" text-anchor="start" x="1218.75" y="-109.7" font-family="Helvetica,sans-Serif" font-size="14.00">samples = 69</text>
<text xml:space="preserve" text-anchor="start" x="1222.5" y="-94.7" font-family="Helvetica,sans-Serif" font-size="14.00">value = 2.26</text>
</g>
<!-- 18&#45;&gt;19 -->
<g id="edge19" class="edge">
<title>18&#45;&gt;19</title>
<path fill="none" stroke="black" d="M1259.62,-192.6C1259.62,-185.03 1259.62,-176.87 1259.62,-168.9"/>
<polygon fill="black" stroke="black" points="1263.13,-168.99 1259.63,-158.99 1256.13,-168.99 1263.13,-168.99"/>
</g>
<!-- 22 -->
<g id="node23" class="node">
<title>22</title>
<path fill="#e78b49" stroke="black" d="M1572.75,-157C1572.75,-157 1446.5,-157 1446.5,-157 1440.5,-157 1434.5,-151 1434.5,-145 1434.5,-145 1434.5,-101 1434.5,-101 1434.5,-95 1440.5,-89 1446.5,-89 1446.5,-89 1572.75,-89 1572.75,-89 1578.75,-89 1584.75,-95 1584.75,-101 1584.75,-101 1584.75,-145 1584.75,-145 1584.75,-151 1578.75,-157 1572.75,-157"/>
<text xml:space="preserve" text-anchor="start" x="1461.25" y="-139.7" font-family="Helvetica,sans-Serif" font-size="14.00">Latitude ≤ 37.27</text>
<text xml:space="preserve" text-anchor="start" x="1442.5" y="-124.7" font-family="Helvetica,sans-Serif" font-size="14.00">squared_error = 0.271</text>
<text xml:space="preserve" text-anchor="start" x="1472.5" y="-109.7" font-family="Helvetica,sans-Serif" font-size="14.00">samples = 5</text>
<text xml:space="preserve" text-anchor="start" x="1468.75" y="-94.7" font-family="Helvetica,sans-Serif" font-size="14.00">value = 4.669</text>
</g>
<!-- 18&#45;&gt;22 -->
<g id="edge22" class="edge">
<title>18&#45;&gt;22</title>
<path fill="none" stroke="black" d="M1334.97,-195.26C1362.89,-183.87 1394.74,-170.87 1423.54,-159.12"/>
<polygon fill="black" stroke="black" points="1424.66,-162.44 1432.6,-155.43 1422.02,-155.96 1424.66,-162.44"/>
</g>
<!-- 20 -->
<g id="node21" class="node">
<title>20</title>
<path fill="#f8decb" stroke="black" d="M1236.75,-53C1236.75,-53 1110.5,-53 1110.5,-53 1104.5,-53 1098.5,-47 1098.5,-41 1098.5,-41 1098.5,-12 1098.5,-12 1098.5,-6 1104.5,0 1110.5,0 1110.5,0 1236.75,0 1236.75,0 1242.75,0 1248.75,-6 1248.75,-12 1248.75,-12 1248.75,-41 1248.75,-41 1248.75,-47 1242.75,-53 1236.75,-53"/>
<text xml:space="preserve" text-anchor="start" x="1106.5" y="-35.7" font-family="Helvetica,sans-Serif" font-size="14.00">squared_error = 0.401</text>
<text xml:space="preserve" text-anchor="start" x="1132.75" y="-20.7" font-family="Helvetica,sans-Serif" font-size="14.00">samples = 44</text>
<text xml:space="preserve" text-anchor="start" x="1132.75" y="-5.7" font-family="Helvetica,sans-Serif" font-size="14.00">value = 2.037</text>
</g>
<!-- 19&#45;&gt;20 -->
<g id="edge20" class="edge">
<title>19&#45;&gt;20</title>
<path fill="none" stroke="black" d="M1229.3,-88.68C1221.4,-79.99 1212.86,-70.62 1204.91,-61.87"/>
<polygon fill="black" stroke="black" points="1207.53,-59.55 1198.21,-54.51 1202.35,-64.26 1207.53,-59.55"/>
</g>
<!-- 21 -->
<g id="node22" class="node">
<title>21</title>
<path fill="#f4cbad" stroke="black" d="M1404.75,-53C1404.75,-53 1278.5,-53 1278.5,-53 1272.5,-53 1266.5,-47 1266.5,-41 1266.5,-41 1266.5,-12 1266.5,-12 1266.5,-6 1272.5,0 1278.5,0 1278.5,0 1404.75,0 1404.75,0 1410.75,0 1416.75,-6 1416.75,-12 1416.75,-12 1416.75,-41 1416.75,-41 1416.75,-47 1410.75,-53 1404.75,-53"/>
<text xml:space="preserve" text-anchor="start" x="1274.5" y="-35.7" font-family="Helvetica,sans-Serif" font-size="14.00">squared_error = 0.418</text>
<text xml:space="preserve" text-anchor="start" x="1300.75" y="-20.7" font-family="Helvetica,sans-Serif" font-size="14.00">samples = 25</text>
<text xml:space="preserve" text-anchor="start" x="1300.75" y="-5.7" font-family="Helvetica,sans-Serif" font-size="14.00">value = 2.652</text>
</g>
<!-- 19&#45;&gt;21 -->
<g id="edge21" class="edge">
<title>19&#45;&gt;21</title>
<path fill="none" stroke="black" d="M1288.54,-88.68C1296.07,-79.99 1304.21,-70.62 1311.8,-61.87"/>
<polygon fill="black" stroke="black" points="1314.25,-64.38 1318.16,-54.54 1308.97,-59.8 1314.25,-64.38"/>
</g>
<!-- 23 -->
<g id="node24" class="node">
<title>23</title>
<path fill="#e6833d" stroke="black" d="M1572.75,-53C1572.75,-53 1446.5,-53 1446.5,-53 1440.5,-53 1434.5,-47 1434.5,-41 1434.5,-41 1434.5,-12 1434.5,-12 1434.5,-6 1440.5,0 1446.5,0 1446.5,0 1572.75,0 1572.75,0 1578.75,0 1584.75,-6 1584.75,-12 1584.75,-12 1584.75,-41 1584.75,-41 1584.75,-47 1578.75,-53 1572.75,-53"/>
<text xml:space="preserve" text-anchor="start" x="1442.5" y="-35.7" font-family="Helvetica,sans-Serif" font-size="14.00">squared_error = 0.018</text>
<text xml:space="preserve" text-anchor="start" x="1472.5" y="-20.7" font-family="Helvetica,sans-Serif" font-size="14.00">samples = 4</text>
<text xml:space="preserve" text-anchor="start" x="1468.75" y="-5.7" font-family="Helvetica,sans-Serif" font-size="14.00">value = 4.923</text>
</g>
<!-- 22&#45;&gt;23 -->
<g id="edge23" class="edge">
<title>22&#45;&gt;23</title>
<path fill="none" stroke="black" d="M1509.62,-88.68C1509.62,-80.99 1509.62,-72.76 1509.62,-64.9"/>
<polygon fill="black" stroke="black" points="1513.13,-64.91 1509.63,-54.91 1506.13,-64.91 1513.13,-64.91"/>
</g>
<!-- 24 -->
<g id="node25" class="node">
<title>24</title>
<path fill="#eeab7b" stroke="black" d="M1726.25,-53C1726.25,-53 1615,-53 1615,-53 1609,-53 1603,-47 1603,-41 1603,-41 1603,-12 1603,-12 1603,-6 1609,0 1615,0 1615,0 1726.25,0 1726.25,0 1732.25,0 1738.25,-6 1738.25,-12 1738.25,-12 1738.25,-41 1738.25,-41 1738.25,-47 1732.25,-53 1726.25,-53"/>
<text xml:space="preserve" text-anchor="start" x="1611" y="-35.7" font-family="Helvetica,sans-Serif" font-size="14.00">squared_error = 0.0</text>
<text xml:space="preserve" text-anchor="start" x="1633.5" y="-20.7" font-family="Helvetica,sans-Serif" font-size="14.00">samples = 1</text>
<text xml:space="preserve" text-anchor="start" x="1629.75" y="-5.7" font-family="Helvetica,sans-Serif" font-size="14.00">value = 3.655</text>
</g>
<!-- 22&#45;&gt;24 -->
<g id="edge24" class="edge">
<title>22&#45;&gt;24</title>
<path fill="none" stroke="black" d="M1566.39,-88.68C1582.73,-79.09 1600.51,-68.65 1616.68,-59.16"/>
<polygon fill="black" stroke="black" points="1618.35,-62.24 1625.2,-54.16 1614.81,-56.2 1618.35,-62.24"/>
</g>
</g>
</svg>
