<?xml version="1.0" encoding="UTF-8" standalone="no"?>
<!DOCTYPE svg PUBLIC "-//W3C//DTD SVG 1.1//EN"
 "http://www.w3.org/Graphics/SVG/1.1/DTD/svg11.dtd">
<!-- Generated by graphviz version 13.1.2 (20250808.2320)
 -->
<!-- Title: Tree Pages: 1 -->
<svg width="2259pt" height="477pt"
 viewBox="0.00 0.00 2259.00 477.00" xmlns="http://www.w3.org/2000/svg" xmlns:xlink="http://www.w3.org/1999/xlink">
<g id="graph0" class="graph" transform="scale(1 1) rotate(0) translate(4 473)">
<title>Tree</title>
<polygon fill="white" stroke="none" points="-4,4 -4,-473 2255,-473 2255,4 -4,4"/>
<!-- 0 -->
<g id="node1" class="node">
<title>0</title>
<path fill="#f7d7c0" stroke="black" d="M1361.25,-469C1361.25,-469 1235,-469 1235,-469 1229,-469 1223,-463 1223,-457 1223,-457 1223,-413 1223,-413 1223,-407 1229,-401 1235,-401 1235,-401 1361.25,-401 1361.25,-401 1367.25,-401 1373.25,-407 1373.25,-413 1373.25,-413 1373.25,-457 1373.25,-457 1373.25,-463 1367.25,-469 1361.25,-469"/>
<text xml:space="preserve" text-anchor="start" x="1251.25" y="-451.7" font-family="Helvetica,sans-Serif" font-size="14.00">MedInc ≤ 5.194</text>
<text xml:space="preserve" text-anchor="start" x="1231" y="-436.7" font-family="Helvetica,sans-Serif" font-size="14.00">squared_error = 1.489</text>
<text xml:space="preserve" text-anchor="start" x="1253.5" y="-421.7" font-family="Helvetica,sans-Serif" font-size="14.00">samples = 128</text>
<text xml:space="preserve" text-anchor="start" x="1257.25" y="-406.7" font-family="Helvetica,sans-Serif" font-size="14.00">value = 2.273</text>
</g>
<!-- 1 -->
<g id="node2" class="node">
<title>1</title>
<path fill="#f9e2d2" stroke="black" d="M1047.25,-365C1047.25,-365 921,-365 921,-365 915,-365 909,-359 909,-353 909,-353 909,-309 909,-309 909,-303 915,-297 921,-297 921,-297 1047.25,-297 1047.25,-297 1053.25,-297 1059.25,-303 1059.25,-309 1059.25,-309 1059.25,-353 1059.25,-353 1059.25,-359 1053.25,-365 1047.25,-365"/>
<text xml:space="preserve" text-anchor="start" x="932" y="-347.7" font-family="Helvetica,sans-Serif" font-size="14.00">HouseAge ≤ 51.0</text>
<text xml:space="preserve" text-anchor="start" x="917" y="-332.7" font-family="Helvetica,sans-Serif" font-size="14.00">squared_error = 0.945</text>
<text xml:space="preserve" text-anchor="start" x="939.5" y="-317.7" font-family="Helvetica,sans-Serif" font-size="14.00">samples = 103</text>
<text xml:space="preserve" text-anchor="start" x="943.25" y="-302.7" font-family="Helvetica,sans-Serif" font-size="14.00">value = 1.915</text>
</g>
<!-- 0&#45;&gt;1 -->
<g id="edge1" class="edge">
<title>0&#45;&gt;1</title>
<path fill="none" stroke="black" d="M1222.51,-409.44C1176.72,-394.56 1118.16,-375.54 1070.54,-360.07"/>
<polygon fill="black" stroke="black" points="1071.65,-356.75 1061.06,-356.99 1069.49,-363.41 1071.65,-356.75"/>
<text xml:space="preserve" text-anchor="middle" x="1070.97" y="-373" font-family="Helvetica,sans-Serif" font-size="14.00">True</text>
</g>
<!-- 16 -->
<g id="node17" class="node">
<title>16</title>
<path fill="#eda877" stroke="black" d="M1671.25,-365C1671.25,-365 1545,-365 1545,-365 1539,-365 1533,-359 1533,-353 1533,-353 1533,-309 1533,-309 1533,-303 1539,-297 1545,-297 1545,-297 1671.25,-297 1671.25,-297 1677.25,-297 1683.25,-303 1683.25,-309 1683.25,-309 1683.25,-353 1683.25,-353 1683.25,-359 1677.25,-365 1671.25,-365"/>
<text xml:space="preserve" text-anchor="start" x="1550.38" y="-347.7" font-family="Helvetica,sans-Serif" font-size="14.00">AveRooms ≤ 7.881</text>
<text xml:space="preserve" text-anchor="start" x="1541" y="-332.7" font-family="Helvetica,sans-Serif" font-size="14.00">squared_error = 1.022</text>
<text xml:space="preserve" text-anchor="start" x="1567.25" y="-317.7" font-family="Helvetica,sans-Serif" font-size="14.00">samples = 25</text>
<text xml:space="preserve" text-anchor="start" x="1567.25" y="-302.7" font-family="Helvetica,sans-Serif" font-size="14.00">value = 3.749</text>
</g>
<!-- 0&#45;&gt;16 -->
<g id="edge16" class="edge">
<title>0&#45;&gt;16</title>
<path fill="none" stroke="black" d="M1373.56,-409.18C1418.37,-394.43 1475.35,-375.69 1521.93,-360.36"/>
<polygon fill="black" stroke="black" points="1522.77,-363.77 1531.18,-357.32 1520.59,-357.12 1522.77,-363.77"/>
<text xml:space="preserve" text-anchor="middle" x="1521.35" y="-373.36" font-family="Helvetica,sans-Serif" font-size="14.00">False</text>
</g>
<!-- 2 -->
<g id="node3" class="node">
<title>2</title>
<path fill="#fae6d8" stroke="black" d="M558.25,-261C558.25,-261 432,-261 432,-261 426,-261 420,-255 420,-249 420,-249 420,-205 420,-205 420,-199 426,-193 432,-193 432,-193 558.25,-193 558.25,-193 564.25,-193 570.25,-199 570.25,-205 570.25,-205 570.25,-249 570.25,-249 570.25,-255 564.25,-261 558.25,-261"/>
<text xml:space="preserve" text-anchor="start" x="448.25" y="-243.7" font-family="Helvetica,sans-Serif" font-size="14.00">MedInc ≤ 2.445</text>
<text xml:space="preserve" text-anchor="start" x="428" y="-228.7" font-family="Helvetica,sans-Serif" font-size="14.00">squared_error = 0.663</text>
<text xml:space="preserve" text-anchor="start" x="454.25" y="-213.7" font-family="Helvetica,sans-Serif" font-size="14.00">samples = 95</text>
<text xml:space="preserve" text-anchor="start" x="454.25" y="-198.7" font-family="Helvetica,sans-Serif" font-size="14.00">value = 1.783</text>
</g>
<!-- 1&#45;&gt;2 -->
<g id="edge2" class="edge">
<title>1&#45;&gt;2</title>
<path fill="none" stroke="black" d="M908.52,-314.23C820.16,-295.8 674.25,-265.36 581.5,-246.02"/>
<polygon fill="black" stroke="black" points="582.44,-242.64 571.94,-244.02 581.01,-249.49 582.44,-242.64"/>
</g>
<!-- 9 -->
<g id="node10" class="node">
<title>9</title>
<path fill="#efb184" stroke="black" d="M1047.25,-261C1047.25,-261 921,-261 921,-261 915,-261 909,-255 909,-249 909,-249 909,-205 909,-205 909,-199 915,-193 921,-193 921,-193 1047.25,-193 1047.25,-193 1053.25,-193 1059.25,-199 1059.25,-205 1059.25,-205 1059.25,-249 1059.25,-249 1059.25,-255 1053.25,-261 1047.25,-261"/>
<text xml:space="preserve" text-anchor="start" x="928.25" y="-243.7" font-family="Helvetica,sans-Serif" font-size="14.00">AveBedrms ≤ 1.06</text>
<text xml:space="preserve" text-anchor="start" x="917" y="-228.7" font-family="Helvetica,sans-Serif" font-size="14.00">squared_error = 1.635</text>
<text xml:space="preserve" text-anchor="start" x="947" y="-213.7" font-family="Helvetica,sans-Serif" font-size="14.00">samples = 8</text>
<text xml:space="preserve" text-anchor="start" x="943.25" y="-198.7" font-family="Helvetica,sans-Serif" font-size="14.00">value = 3.481</text>
</g>
<!-- 1&#45;&gt;9 -->
<g id="edge9" class="edge">
<title>1&#45;&gt;9</title>
<path fill="none" stroke="black" d="M984.12,-296.6C984.12,-289.03 984.12,-280.87 984.12,-272.9"/>
<polygon fill="black" stroke="black" points="987.63,-272.99 984.13,-262.99 980.63,-272.99 987.63,-272.99"/>
</g>
<!-- 3 -->
<g id="node4" class="node">
<title>3</title>
<path fill="#fdf7f3" stroke="black" d="M306.25,-157C306.25,-157 180,-157 180,-157 174,-157 168,-151 168,-145 168,-145 168,-101 168,-101 168,-95 174,-89 180,-89 180,-89 306.25,-89 306.25,-89 312.25,-89 318.25,-95 318.25,-101 318.25,-101 318.25,-145 318.25,-145 318.25,-151 312.25,-157 306.25,-157"/>
<text xml:space="preserve" text-anchor="start" x="183.5" y="-139.7" font-family="Helvetica,sans-Serif" font-size="14.00">AveBedrms ≤ 1.097</text>
<text xml:space="preserve" text-anchor="start" x="176" y="-124.7" font-family="Helvetica,sans-Serif" font-size="14.00">squared_error = 0.307</text>
<text xml:space="preserve" text-anchor="start" x="202.25" y="-109.7" font-family="Helvetica,sans-Serif" font-size="14.00">samples = 22</text>
<text xml:space="preserve" text-anchor="start" x="202.25" y="-94.7" font-family="Helvetica,sans-Serif" font-size="14.00">value = 1.237</text>
</g>
<!-- 2&#45;&gt;3 -->
<g id="edge3" class="edge">
<title>2&#45;&gt;3</title>
<path fill="none" stroke="black" d="M419.52,-195.4C391.11,-183.9 358.61,-170.75 329.32,-158.89"/>
<polygon fill="black" stroke="black" points="330.67,-155.66 320.08,-155.15 328.04,-162.15 330.67,-155.66"/>
</g>
<!-- 6 -->
<g id="node7" class="node">
<title>6</title>
<path fill="#f9e1d0" stroke="black" d="M558.25,-157C558.25,-157 432,-157 432,-157 426,-157 420,-151 420,-145 420,-145 420,-101 420,-101 420,-95 426,-89 432,-89 432,-89 558.25,-89 558.25,-89 564.25,-89 570.25,-95 570.25,-101 570.25,-101 570.25,-145 570.25,-145 570.25,-151 564.25,-157 558.25,-157"/>
<text xml:space="preserve" text-anchor="start" x="437.38" y="-139.7" font-family="Helvetica,sans-Serif" font-size="14.00">AveRooms ≤ 5.518</text>
<text xml:space="preserve" text-anchor="start" x="428" y="-124.7" font-family="Helvetica,sans-Serif" font-size="14.00">squared_error = 0.653</text>
<text xml:space="preserve" text-anchor="start" x="454.25" y="-109.7" font-family="Helvetica,sans-Serif" font-size="14.00">samples = 73</text>
<text xml:space="preserve" text-anchor="start" x="454.25" y="-94.7" font-family="Helvetica,sans-Serif" font-size="14.00">value = 1.947</text>
</g>
<!-- 2&#45;&gt;6 -->
<g id="edge6" class="edge">
<title>2&#45;&gt;6</title>
<path fill="none" stroke="black" d="M495.12,-192.6C495.12,-185.03 495.12,-176.87 495.12,-168.9"/>
<polygon fill="black" stroke="black" points="498.63,-168.99 495.13,-158.99 491.63,-168.99 498.63,-168.99"/>
</g>
<!-- 4 -->
<g id="node5" class="node">
<title>4</title>
<path fill="#ffffff" stroke="black" d="M138.25,-53C138.25,-53 12,-53 12,-53 6,-53 0,-47 0,-41 0,-41 0,-12 0,-12 0,-6 6,0 12,0 12,0 138.25,0 138.25,0 144.25,0 150.25,-6 150.25,-12 150.25,-12 150.25,-41 150.25,-41 150.25,-47 144.25,-53 138.25,-53"/>
<text xml:space="preserve" text-anchor="start" x="8" y="-35.7" font-family="Helvetica,sans-Serif" font-size="14.00">squared_error = 0.271</text>
<text xml:space="preserve" text-anchor="start" x="34.25" y="-20.7" font-family="Helvetica,sans-Serif" font-size="14.00">samples = 14</text>
<text xml:space="preserve" text-anchor="start" x="34.25" y="-5.7" font-family="Helvetica,sans-Serif" font-size="14.00">value = 0.998</text>
</g>
<!-- 3&#45;&gt;4 -->
<g id="edge4" class="edge">
<title>3&#45;&gt;4</title>
<path fill="none" stroke="black" d="M183.89,-88.68C166.68,-79 147.94,-68.46 130.94,-58.9"/>
<polygon fill="black" stroke="black" points="132.91,-55.99 122.48,-54.14 129.48,-62.09 132.91,-55.99"/>
</g>
<!-- 5 -->
<g id="node6" class="node">
<title>5</title>
<path fill="#fbeadf" stroke="black" d="M306.25,-53C306.25,-53 180,-53 180,-53 174,-53 168,-47 168,-41 168,-41 168,-12 168,-12 168,-6 174,0 180,0 180,0 306.25,0 306.25,0 312.25,0 318.25,-6 318.25,-12 318.25,-12 318.25,-41 318.25,-41 318.25,-47 312.25,-53 306.25,-53"/>
<text xml:space="preserve" text-anchor="start" x="176" y="-35.7" font-family="Helvetica,sans-Serif" font-size="14.00">squared_error = 0.096</text>
<text xml:space="preserve" text-anchor="start" x="206" y="-20.7" font-family="Helvetica,sans-Serif" font-size="14.00">samples = 8</text>
<text xml:space="preserve" text-anchor="start" x="202.25" y="-5.7" font-family="Helvetica,sans-Serif" font-size="14.00">value = 1.655</text>
</g>
<!-- 3&#45;&gt;5 -->
<g id="edge5" class="edge">
<title>3&#45;&gt;5</title>
<path fill="none" stroke="black" d="M243.12,-88.68C243.12,-80.99 243.12,-72.76 243.12,-64.9"/>
<polygon fill="black" stroke="black" points="246.63,-64.91 243.13,-54.91 239.63,-64.91 246.63,-64.91"/>
</g>
<!-- 7 -->
<g id="node8" class="node">
<title>7</title>
<path fill="#f7dac5" stroke="black" d="M474.25,-53C474.25,-53 348,-53 348,-53 342,-53 336,-47 336,-41 336,-41 336,-12 336,-12 336,-6 342,0 348,0 348,0 474.25,0 474.25,0 480.25,0 486.25,-6 486.25,-12 486.25,-12 486.25,-41 486.25,-41 486.25,-47 480.25,-53 474.25,-53"/>
<text xml:space="preserve" text-anchor="start" x="344" y="-35.7" font-family="Helvetica,sans-Serif" font-size="14.00">squared_error = 0.667</text>
<text xml:space="preserve" text-anchor="start" x="370.25" y="-20.7" font-family="Helvetica,sans-Serif" font-size="14.00">samples = 49</text>
<text xml:space="preserve" text-anchor="start" x="370.25" y="-5.7" font-family="Helvetica,sans-Serif" font-size="14.00">value = 2.172</text>
</g>
<!-- 6&#45;&gt;7 -->
<g id="edge7" class="edge">
<title>6&#45;&gt;7</title>
<path fill="none" stroke="black" d="M465.51,-88.68C457.79,-79.99 449.45,-70.62 441.68,-61.87"/>
<polygon fill="black" stroke="black" points="444.41,-59.67 435.15,-54.53 439.17,-64.32 444.41,-59.67"/>
</g>
<!-- 8 -->
<g id="node9" class="node">
<title>8</title>
<path fill="#fcf0e7" stroke="black" d="M642.25,-53C642.25,-53 516,-53 516,-53 510,-53 504,-47 504,-41 504,-41 504,-12 504,-12 504,-6 510,0 516,0 516,0 642.25,0 642.25,0 648.25,0 654.25,-6 654.25,-12 654.25,-12 654.25,-41 654.25,-41 654.25,-47 648.25,-53 642.25,-53"/>
<text xml:space="preserve" text-anchor="start" x="512" y="-35.7" font-family="Helvetica,sans-Serif" font-size="14.00">squared_error = 0.311</text>
<text xml:space="preserve" text-anchor="start" x="538.25" y="-20.7" font-family="Helvetica,sans-Serif" font-size="14.00">samples = 24</text>
<text xml:space="preserve" text-anchor="start" x="538.25" y="-5.7" font-family="Helvetica,sans-Serif" font-size="14.00">value = 1.488</text>
</g>
<!-- 6&#45;&gt;8 -->
<g id="edge8" class="edge">
<title>6&#45;&gt;8</title>
<path fill="none" stroke="black" d="M524.74,-88.68C532.46,-79.99 540.8,-70.62 548.57,-61.87"/>
<polygon fill="black" stroke="black" points="551.08,-64.32 555.1,-54.53 545.84,-59.67 551.08,-64.32"/>
</g>
<!-- 10 -->
<g id="node11" class="node">
<title>10</title>
<path fill="#f7d6bf" stroke="black" d="M963.25,-157C963.25,-157 837,-157 837,-157 831,-157 825,-151 825,-145 825,-145 825,-101 825,-101 825,-95 831,-89 837,-89 837,-89 963.25,-89 963.25,-89 969.25,-89 975.25,-95 975.25,-101 975.25,-101 975.25,-145 975.25,-145 975.25,-151 969.25,-157 963.25,-157"/>
<text xml:space="preserve" text-anchor="start" x="848" y="-139.7" font-family="Helvetica,sans-Serif" font-size="14.00">Latitude ≤ 37.815</text>
<text xml:space="preserve" text-anchor="start" x="833" y="-124.7" font-family="Helvetica,sans-Serif" font-size="14.00">squared_error = 0.135</text>
<text xml:space="preserve" text-anchor="start" x="863" y="-109.7" font-family="Helvetica,sans-Serif" font-size="14.00">samples = 4</text>
<text xml:space="preserve" text-anchor="start" x="859.25" y="-94.7" font-family="Helvetica,sans-Serif" font-size="14.00">value = 2.299</text>
</g>
<!-- 9&#45;&gt;10 -->
<g id="edge10" class="edge">
<title>9&#45;&gt;10</title>
<path fill="none" stroke="black" d="M956.62,-192.6C949.66,-184.15 942.09,-174.96 934.82,-166.13"/>
<polygon fill="black" stroke="black" points="937.71,-164.14 928.65,-158.64 932.31,-168.59 937.71,-164.14"/>
</g>
<!-- 13 -->
<g id="node14" class="node">
<title>13</title>
<path fill="#e78c4a" stroke="black" d="M1131.25,-157C1131.25,-157 1005,-157 1005,-157 999,-157 993,-151 993,-145 993,-145 993,-101 993,-101 993,-95 999,-89 1005,-89 1005,-89 1131.25,-89 1131.25,-89 1137.25,-89 1143.25,-95 1143.25,-101 1143.25,-101 1143.25,-145 1143.25,-145 1143.25,-151 1137.25,-157 1131.25,-157"/>
<text xml:space="preserve" text-anchor="start" x="1012.25" y="-139.7" font-family="Helvetica,sans-Serif" font-size="14.00">AveOccup ≤ 2.299</text>
<text xml:space="preserve" text-anchor="start" x="1001" y="-124.7" font-family="Helvetica,sans-Serif" font-size="14.00">squared_error = 0.343</text>
<text xml:space="preserve" text-anchor="start" x="1031" y="-109.7" font-family="Helvetica,sans-Serif" font-size="14.00">samples = 4</text>
<text xml:space="preserve" text-anchor="start" x="1027.25" y="-94.7" font-family="Helvetica,sans-Serif" font-size="14.00">value = 4.662</text>
</g>
<!-- 9&#45;&gt;13 -->
<g id="edge13" class="edge">
<title>9&#45;&gt;13</title>
<path fill="none" stroke="black" d="M1011.63,-192.6C1018.59,-184.15 1026.16,-174.96 1033.43,-166.13"/>
<polygon fill="black" stroke="black" points="1035.94,-168.59 1039.6,-158.64 1030.54,-164.14 1035.94,-168.59"/>
</g>
<!-- 11 -->
<g id="node12" class="node">
<title>11</title>
<path fill="#f5d0b6" stroke="black" d="M810.25,-53C810.25,-53 684,-53 684,-53 678,-53 672,-47 672,-41 672,-41 672,-12 672,-12 672,-6 678,0 684,0 684,0 810.25,0 810.25,0 816.25,0 822.25,-6 822.25,-12 822.25,-12 822.25,-41 822.25,-41 822.25,-47 816.25,-53 810.25,-53"/>
<text xml:space="preserve" text-anchor="start" x="680" y="-35.7" font-family="Helvetica,sans-Serif" font-size="14.00">squared_error = 0.051</text>
<text xml:space="preserve" text-anchor="start" x="710" y="-20.7" font-family="Helvetica,sans-Serif" font-size="14.00">samples = 3</text>
<text xml:space="preserve" text-anchor="start" x="706.25" y="-5.7" font-family="Helvetica,sans-Serif" font-size="14.00">value = 2.479</text>
</g>
<!-- 10&#45;&gt;11 -->
<g id="edge11" class="edge">
<title>10&#45;&gt;11</title>
<path fill="none" stroke="black" d="M846.18,-88.68C830.8,-79.18 814.08,-68.85 798.83,-59.43"/>
<polygon fill="black" stroke="black" points="800.68,-56.47 790.34,-54.19 797,-62.42 800.68,-56.47"/>
</g>
<!-- 12 -->
<g id="node13" class="node">
<title>12</title>
<path fill="#fae7d9" stroke="black" d="M963.75,-53C963.75,-53 852.5,-53 852.5,-53 846.5,-53 840.5,-47 840.5,-41 840.5,-41 840.5,-12 840.5,-12 840.5,-6 846.5,0 852.5,0 852.5,0 963.75,0 963.75,0 969.75,0 975.75,-6 975.75,-12 975.75,-12 975.75,-41 975.75,-41 975.75,-47 969.75,-53 963.75,-53"/>
<text xml:space="preserve" text-anchor="start" x="848.5" y="-35.7" font-family="Helvetica,sans-Serif" font-size="14.00">squared_error = 0.0</text>
<text xml:space="preserve" text-anchor="start" x="871" y="-20.7" font-family="Helvetica,sans-Serif" font-size="14.00">samples = 1</text>
<text xml:space="preserve" text-anchor="start" x="871" y="-5.7" font-family="Helvetica,sans-Serif" font-size="14.00">value = 1.76</text>
</g>
<!-- 10&#45;&gt;12 -->
<g id="edge12" class="edge">
<title>10&#45;&gt;12</title>
<path fill="none" stroke="black" d="M902.95,-88.68C903.6,-80.9 904.31,-72.56 904.98,-64.63"/>
<polygon fill="black" stroke="black" points="908.45,-65.16 905.81,-54.9 901.47,-64.57 908.45,-65.16"/>
</g>
<!-- 14 -->
<g id="node15" class="node">
<title>14</title>
<path fill="#e58139" stroke="black" d="M1116.75,-53C1116.75,-53 1005.5,-53 1005.5,-53 999.5,-53 993.5,-47 993.5,-41 993.5,-41 993.5,-12 993.5,-12 993.5,-6 999.5,0 1005.5,0 1005.5,0 1116.75,0 1116.75,0 1122.75,0 1128.75,-6 1128.75,-12 1128.75,-12 1128.75,-41 1128.75,-41 1128.75,-47 1122.75,-53 1116.75,-53"/>
<text xml:space="preserve" text-anchor="start" x="1001.5" y="-35.7" font-family="Helvetica,sans-Serif" font-size="14.00">squared_error = 0.0</text>
<text xml:space="preserve" text-anchor="start" x="1024" y="-20.7" font-family="Helvetica,sans-Serif" font-size="14.00">samples = 3</text>
<text xml:space="preserve" text-anchor="start" x="1027.75" y="-5.7" font-family="Helvetica,sans-Serif" font-size="14.00">value = 5.0</text>
</g>
<!-- 13&#45;&gt;14 -->
<g id="edge14" class="edge">
<title>13&#45;&gt;14</title>
<path fill="none" stroke="black" d="M1065.66,-88.68C1065.08,-80.9 1064.46,-72.56 1063.88,-64.63"/>
<polygon fill="black" stroke="black" points="1067.38,-64.62 1063.15,-54.9 1060.4,-65.13 1067.38,-64.62"/>
</g>
<!-- 15 -->
<g id="node16" class="node">
<title>15</title>
<path fill="#eeac7c" stroke="black" d="M1269.75,-53C1269.75,-53 1158.5,-53 1158.5,-53 1152.5,-53 1146.5,-47 1146.5,-41 1146.5,-41 1146.5,-12 1146.5,-12 1146.5,-6 1152.5,0 1158.5,0 1158.5,0 1269.75,0 1269.75,0 1275.75,0 1281.75,-6 1281.75,-12 1281.75,-12 1281.75,-41 1281.75,-41 1281.75,-47 1275.75,-53 1269.75,-53"/>
<text xml:space="preserve" text-anchor="start" x="1154.5" y="-35.7" font-family="Helvetica,sans-Serif" font-size="14.00">squared_error = 0.0</text>
<text xml:space="preserve" text-anchor="start" x="1177" y="-20.7" font-family="Helvetica,sans-Serif" font-size="14.00">samples = 1</text>
<text xml:space="preserve" text-anchor="start" x="1173.25" y="-5.7" font-family="Helvetica,sans-Serif" font-size="14.00">value = 3.648</text>
</g>
<!-- 13&#45;&gt;15 -->
<g id="edge15" class="edge">
<title>13&#45;&gt;15</title>
<path fill="none" stroke="black" d="M1119.6,-88.68C1134.28,-79.18 1150.24,-68.85 1164.79,-59.43"/>
<polygon fill="black" stroke="black" points="1166.36,-62.59 1172.85,-54.22 1162.55,-56.71 1166.36,-62.59"/>
</g>
<!-- 17 -->
<g id="node18" class="node">
<title>17</title>
<path fill="#efb286" stroke="black" d="M1671.25,-261C1671.25,-261 1545,-261 1545,-261 1539,-261 1533,-255 1533,-249 1533,-249 1533,-205 1533,-205 1533,-199 1539,-193 1545,-193 1545,-193 1671.25,-193 1671.25,-193 1677.25,-193 1683.25,-199 1683.25,-205 1683.25,-205 1683.25,-249 1683.25,-249 1683.25,-255 1677.25,-261 1671.25,-261"/>
<text xml:space="preserve" text-anchor="start" x="1548.12" y="-243.7" font-family="Helvetica,sans-Serif" font-size="14.00">Longitude ≤ &#45;122.05</text>
<text xml:space="preserve" text-anchor="start" x="1541" y="-228.7" font-family="Helvetica,sans-Serif" font-size="14.00">squared_error = 0.856</text>
<text xml:space="preserve" text-anchor="start" x="1567.25" y="-213.7" font-family="Helvetica,sans-Serif" font-size="14.00">samples = 19</text>
<text xml:space="preserve" text-anchor="start" x="1567.25" y="-198.7" font-family="Helvetica,sans-Serif" font-size="14.00">value = 3.441</text>
</g>
<!-- 16&#45;&gt;17 -->
<g id="edge17" class="edge">
<title>16&#45;&gt;17</title>
<path fill="none" stroke="black" d="M1608.12,-296.6C1608.12,-289.03 1608.12,-280.87 1608.12,-272.9"/>
<polygon fill="black" stroke="black" points="1611.63,-272.99 1608.13,-262.99 1604.63,-272.99 1611.63,-272.99"/>
</g>
<!-- 24 -->
<g id="node25" class="node">
<title>24</title>
<path fill="#e78a47" stroke="black" d="M2081.25,-261C2081.25,-261 1955,-261 1955,-261 1949,-261 1943,-255 1943,-249 1943,-249 1943,-205 1943,-205 1943,-199 1949,-193 1955,-193 1955,-193 2081.25,-193 2081.25,-193 2087.25,-193 2093.25,-199 2093.25,-205 2093.25,-205 2093.25,-249 2093.25,-249 2093.25,-255 2087.25,-261 2081.25,-261"/>
<text xml:space="preserve" text-anchor="start" x="1958.12" y="-243.7" font-family="Helvetica,sans-Serif" font-size="14.00">Population ≤ 1340.0</text>
<text xml:space="preserve" text-anchor="start" x="1951" y="-228.7" font-family="Helvetica,sans-Serif" font-size="14.00">squared_error = 0.298</text>
<text xml:space="preserve" text-anchor="start" x="1981" y="-213.7" font-family="Helvetica,sans-Serif" font-size="14.00">samples = 6</text>
<text xml:space="preserve" text-anchor="start" x="1977.25" y="-198.7" font-family="Helvetica,sans-Serif" font-size="14.00">value = 4.724</text>
</g>
<!-- 16&#45;&gt;24 -->
<g id="edge24" class="edge">
<title>16&#45;&gt;24</title>
<path fill="none" stroke="black" d="M1683.33,-311.29C1753.47,-293.84 1858.06,-267.82 1931.63,-249.52"/>
<polygon fill="black" stroke="black" points="1932.38,-252.94 1941.24,-247.13 1930.69,-246.15 1932.38,-252.94"/>
</g>
<!-- 18 -->
<g id="node19" class="node">
<title>18</title>
<path fill="#e88e4d" stroke="black" d="M1587.25,-157C1587.25,-157 1461,-157 1461,-157 1455,-157 1449,-151 1449,-145 1449,-145 1449,-101 1449,-101 1449,-95 1455,-89 1461,-89 1461,-89 1587.25,-89 1587.25,-89 1593.25,-89 1599.25,-95 1599.25,-101 1599.25,-101 1599.25,-145 1599.25,-145 1599.25,-151 1593.25,-157 1587.25,-157"/>
<text xml:space="preserve" text-anchor="start" x="1466.38" y="-139.7" font-family="Helvetica,sans-Serif" font-size="14.00">AveRooms ≤ 5.893</text>
<text xml:space="preserve" text-anchor="start" x="1457" y="-124.7" font-family="Helvetica,sans-Serif" font-size="14.00">squared_error = 0.082</text>
<text xml:space="preserve" text-anchor="start" x="1487" y="-109.7" font-family="Helvetica,sans-Serif" font-size="14.00">samples = 3</text>
<text xml:space="preserve" text-anchor="start" x="1483.25" y="-94.7" font-family="Helvetica,sans-Serif" font-size="14.00">value = 4.598</text>
</g>
<!-- 17&#45;&gt;18 -->
<g id="edge18" class="edge">
<title>17&#45;&gt;18</title>
<path fill="none" stroke="black" d="M1580.62,-192.6C1573.66,-184.15 1566.09,-174.96 1558.82,-166.13"/>
<polygon fill="black" stroke="black" points="1561.71,-164.14 1552.65,-158.64 1556.31,-168.59 1561.71,-164.14"/>
</g>
<!-- 21 -->
<g id="node22" class="node">
<title>21</title>
<path fill="#f1b991" stroke="black" d="M1755.25,-157C1755.25,-157 1629,-157 1629,-157 1623,-157 1617,-151 1617,-145 1617,-145 1617,-101 1617,-101 1617,-95 1623,-89 1629,-89 1629,-89 1755.25,-89 1755.25,-89 1761.25,-89 1767.25,-95 1767.25,-101 1767.25,-101 1767.25,-145 1767.25,-145 1767.25,-151 1761.25,-157 1755.25,-157"/>
<text xml:space="preserve" text-anchor="start" x="1634.38" y="-139.7" font-family="Helvetica,sans-Serif" font-size="14.00">AveRooms ≤ 4.205</text>
<text xml:space="preserve" text-anchor="start" x="1625" y="-124.7" font-family="Helvetica,sans-Serif" font-size="14.00">squared_error = 0.703</text>
<text xml:space="preserve" text-anchor="start" x="1651.25" y="-109.7" font-family="Helvetica,sans-Serif" font-size="14.00">samples = 16</text>
<text xml:space="preserve" text-anchor="start" x="1651.25" y="-94.7" font-family="Helvetica,sans-Serif" font-size="14.00">value = 3.225</text>
</g>
<!-- 17&#45;&gt;21 -->
<g id="edge21" class="edge">
<title>17&#45;&gt;21</title>
<path fill="none" stroke="black" d="M1635.63,-192.6C1642.59,-184.15 1650.16,-174.96 1657.43,-166.13"/>
<polygon fill="black" stroke="black" points="1659.94,-168.59 1663.6,-158.64 1654.54,-164.14 1659.94,-168.59"/>
</g>
<!-- 19 -->
<g id="node20" class="node">
<title>19</title>
<path fill="#e58139" stroke="black" d="M1422.75,-53C1422.75,-53 1311.5,-53 1311.5,-53 1305.5,-53 1299.5,-47 1299.5,-41 1299.5,-41 1299.5,-12 1299.5,-12 1299.5,-6 1305.5,0 1311.5,0 1311.5,0 1422.75,0 1422.75,0 1428.75,0 1434.75,-6 1434.75,-12 1434.75,-12 1434.75,-41 1434.75,-41 1434.75,-47 1428.75,-53 1422.75,-53"/>
<text xml:space="preserve" text-anchor="start" x="1307.5" y="-35.7" font-family="Helvetica,sans-Serif" font-size="14.00">squared_error = 0.0</text>
<text xml:space="preserve" text-anchor="start" x="1330" y="-20.7" font-family="Helvetica,sans-Serif" font-size="14.00">samples = 1</text>
<text xml:space="preserve" text-anchor="start" x="1333.75" y="-5.7" font-family="Helvetica,sans-Serif" font-size="14.00">value = 5.0</text>
</g>
<!-- 18&#45;&gt;19 -->
<g id="edge19" class="edge">
<title>18&#45;&gt;19</title>
<path fill="none" stroke="black" d="M1468.77,-88.68C1452.83,-79.09 1435.5,-68.65 1419.73,-59.16"/>
<polygon fill="black" stroke="black" points="1421.81,-56.33 1411.44,-54.17 1418.2,-62.33 1421.81,-56.33"/>
</g>
<!-- 20 -->
<g id="node21" class="node">
<title>20</title>
<path fill="#e99457" stroke="black" d="M1591.25,-53C1591.25,-53 1465,-53 1465,-53 1459,-53 1453,-47 1453,-41 1453,-41 1453,-12 1453,-12 1453,-6 1459,0 1465,0 1465,0 1591.25,0 1591.25,0 1597.25,0 1603.25,-6 1603.25,-12 1603.25,-12 1603.25,-41 1603.25,-41 1603.25,-47 1597.25,-53 1591.25,-53"/>
<text xml:space="preserve" text-anchor="start" x="1461" y="-35.7" font-family="Helvetica,sans-Serif" font-size="14.00">squared_error = 0.002</text>
<text xml:space="preserve" text-anchor="start" x="1491" y="-20.7" font-family="Helvetica,sans-Serif" font-size="14.00">samples = 2</text>
<text xml:space="preserve" text-anchor="start" x="1487.25" y="-5.7" font-family="Helvetica,sans-Serif" font-size="14.00">value = 4.398</text>
</g>
<!-- 18&#45;&gt;20 -->
<g id="edge20" class="edge">
<title>18&#45;&gt;20</title>
<path fill="none" stroke="black" d="M1525.54,-88.68C1525.86,-80.9 1526.22,-72.56 1526.55,-64.63"/>
<polygon fill="black" stroke="black" points="1530.04,-65.05 1526.96,-54.91 1523.05,-64.75 1530.04,-65.05"/>
</g>
<!-- 22 -->
<g id="node23" class="node">
<title>22</title>
<path fill="#e58139" stroke="black" d="M1744.75,-53C1744.75,-53 1633.5,-53 1633.5,-53 1627.5,-53 1621.5,-47 1621.5,-41 1621.5,-41 1621.5,-12 1621.5,-12 1621.5,-6 1627.5,0 1633.5,0 1633.5,0 1744.75,0 1744.75,0 1750.75,0 1756.75,-6 1756.75,-12 1756.75,-12 1756.75,-41 1756.75,-41 1756.75,-47 1750.75,-53 1744.75,-53"/>
<text xml:space="preserve" text-anchor="start" x="1629.5" y="-35.7" font-family="Helvetica,sans-Serif" font-size="14.00">squared_error = 0.0</text>
<text xml:space="preserve" text-anchor="start" x="1652" y="-20.7" font-family="Helvetica,sans-Serif" font-size="14.00">samples = 1</text>
<text xml:space="preserve" text-anchor="start" x="1655.75" y="-5.7" font-family="Helvetica,sans-Serif" font-size="14.00">value = 5.0</text>
</g>
<!-- 21&#45;&gt;22 -->
<g id="edge22" class="edge">
<title>21&#45;&gt;22</title>
<path fill="none" stroke="black" d="M1691.07,-88.68C1690.82,-80.9 1690.56,-72.56 1690.3,-64.63"/>
<polygon fill="black" stroke="black" points="1693.81,-64.79 1690,-54.91 1686.81,-65.01 1693.81,-64.79"/>
</g>
<!-- 23 -->
<g id="node24" class="node">
<title>23</title>
<path fill="#f1bd97" stroke="black" d="M1913.25,-53C1913.25,-53 1787,-53 1787,-53 1781,-53 1775,-47 1775,-41 1775,-41 1775,-12 1775,-12 1775,-6 1781,0 1787,0 1787,0 1913.25,0 1913.25,0 1919.25,0 1925.25,-6 1925.25,-12 1925.25,-12 1925.25,-41 1925.25,-41 1925.25,-47 1919.25,-53 1913.25,-53"/>
<text xml:space="preserve" text-anchor="start" x="1783" y="-35.7" font-family="Helvetica,sans-Serif" font-size="14.00">squared_error = 0.526</text>
<text xml:space="preserve" text-anchor="start" x="1809.25" y="-20.7" font-family="Helvetica,sans-Serif" font-size="14.00">samples = 15</text>
<text xml:space="preserve" text-anchor="start" x="1809.25" y="-5.7" font-family="Helvetica,sans-Serif" font-size="14.00">value = 3.106</text>
</g>
<!-- 21&#45;&gt;23 -->
<g id="edge23" class="edge">
<title>21&#45;&gt;23</title>
<path fill="none" stroke="black" d="M1747.83,-88.68C1763.87,-79.09 1781.32,-68.65 1797.18,-59.16"/>
<polygon fill="black" stroke="black" points="1798.75,-62.31 1805.53,-54.17 1795.15,-56.3 1798.75,-62.31"/>
</g>
<!-- 25 -->
<g id="node26" class="node">
<title>25</title>
<path fill="#e5823b" stroke="black" d="M2081.25,-157C2081.25,-157 1955,-157 1955,-157 1949,-157 1943,-151 1943,-145 1943,-145 1943,-101 1943,-101 1943,-95 1949,-89 1955,-89 1955,-89 2081.25,-89 2081.25,-89 2087.25,-89 2093.25,-95 2093.25,-101 2093.25,-101 2093.25,-145 2093.25,-145 2093.25,-151 2087.25,-157 2081.25,-157"/>
<text xml:space="preserve" text-anchor="start" x="1958.5" y="-139.7" font-family="Helvetica,sans-Serif" font-size="14.00">AveBedrms ≤ 1.072</text>
<text xml:space="preserve" text-anchor="start" x="1951" y="-124.7" font-family="Helvetica,sans-Serif" font-size="14.00">squared_error = 0.005</text>
<text xml:space="preserve" text-anchor="start" x="1981" y="-109.7" font-family="Helvetica,sans-Serif" font-size="14.00">samples = 5</text>
<text xml:space="preserve" text-anchor="start" x="1977.25" y="-94.7" font-family="Helvetica,sans-Serif" font-size="14.00">value = 4.966</text>
</g>
<!-- 24&#45;&gt;25 -->
<g id="edge25" class="edge">
<title>24&#45;&gt;25</title>
<path fill="none" stroke="black" d="M2018.12,-192.6C2018.12,-185.03 2018.12,-176.87 2018.12,-168.9"/>
<polygon fill="black" stroke="black" points="2021.63,-168.99 2018.13,-158.99 2014.63,-168.99 2021.63,-168.99"/>
</g>
<!-- 28 -->
<g id="node29" class="node">
<title>28</title>
<path fill="#efb083" stroke="black" d="M2234.75,-149.5C2234.75,-149.5 2123.5,-149.5 2123.5,-149.5 2117.5,-149.5 2111.5,-143.5 2111.5,-137.5 2111.5,-137.5 2111.5,-108.5 2111.5,-108.5 2111.5,-102.5 2117.5,-96.5 2123.5,-96.5 2123.5,-96.5 2234.75,-96.5 2234.75,-96.5 2240.75,-96.5 2246.75,-102.5 2246.75,-108.5 2246.75,-108.5 2246.75,-137.5 2246.75,-137.5 2246.75,-143.5 2240.75,-149.5 2234.75,-149.5"/>
<text xml:space="preserve" text-anchor="start" x="2119.5" y="-132.2" font-family="Helvetica,sans-Serif" font-size="14.00">squared_error = 0.0</text>
<text xml:space="preserve" text-anchor="start" x="2142" y="-117.2" font-family="Helvetica,sans-Serif" font-size="14.00">samples = 1</text>
<text xml:space="preserve" text-anchor="start" x="2138.25" y="-102.2" font-family="Helvetica,sans-Serif" font-size="14.00">value = 3.512</text>
</g>
<!-- 24&#45;&gt;28 -->
<g id="edge28" class="edge">
<title>24&#45;&gt;28</title>
<path fill="none" stroke="black" d="M2070.84,-192.6C2089.42,-180.83 2110.25,-167.63 2128.64,-155.98"/>
<polygon fill="black" stroke="black" points="2130.44,-158.99 2137.01,-150.68 2126.69,-153.07 2130.44,-158.99"/>
</g>
<!-- 26 -->
<g id="node27" class="node">
<title>26</title>
<path fill="#e6843d" stroke="black" d="M2081.25,-53C2081.25,-53 1955,-53 1955,-53 1949,-53 1943,-47 1943,-41 1943,-41 1943,-12 1943,-12 1943,-6 1949,0 1955,0 1955,0 2081.25,0 2081.25,0 2087.25,0 2093.25,-6 2093.25,-12 2093.25,-12 2093.25,-41 2093.25,-41 2093.25,-47 2087.25,-53 2081.25,-53"/>
<text xml:space="preserve" text-anchor="start" x="1951" y="-35.7" font-family="Helvetica,sans-Serif" font-size="14.00">squared_error = 0.007</text>
<text xml:space="preserve" text-anchor="start" x="1981" y="-20.7" font-family="Helvetica,sans-Serif" font-size="14.00">samples = 2</text>
<text xml:space="preserve" text-anchor="start" x="1977.25" y="-5.7" font-family="Helvetica,sans-Serif" font-size="14.00">value = 4.916</text>
</g>
<!-- 25&#45;&gt;26 -->
<g id="edge26" class="edge">
<title>25&#45;&gt;26</title>
<path fill="none" stroke="black" d="M2018.12,-88.68C2018.12,-80.99 2018.12,-72.76 2018.12,-64.9"/>
<polygon fill="black" stroke="black" points="2021.63,-64.91 2018.13,-54.91 2014.63,-64.91 2021.63,-64.91"/>
</g>
<!-- 27 -->
<g id="node28" class="node">
<title>27</title>
<path fill="#e58139" stroke="black" d="M2239,-53C2239,-53 2123.25,-53 2123.25,-53 2117.25,-53 2111.25,-47 2111.25,-41 2111.25,-41 2111.25,-12 2111.25,-12 2111.25,-6 2117.25,0 2123.25,0 2123.25,0 2239,0 2239,0 2245,0 2251,-6 2251,-12 2251,-12 2251,-41 2251,-41 2251,-47 2245,-53 2239,-53"/>
<text xml:space="preserve" text-anchor="start" x="2119.25" y="-35.7" font-family="Helvetica,sans-Serif" font-size="14.00">squared_error = &#45;0.0</text>
<text xml:space="preserve" text-anchor="start" x="2144" y="-20.7" font-family="Helvetica,sans-Serif" font-size="14.00">samples = 3</text>
<text xml:space="preserve" text-anchor="start" x="2147.75" y="-5.7" font-family="Helvetica,sans-Serif" font-size="14.00">value = 5.0</text>
</g>
<!-- 25&#45;&gt;27 -->
<g id="edge27" class="edge">
<title>25&#45;&gt;27</title>
<path fill="none" stroke="black" d="M2075.59,-88.68C2092.14,-79.09 2110.14,-68.65 2126.51,-59.16"/>
<polygon fill="black" stroke="black" points="2128.26,-62.2 2135.15,-54.15 2124.75,-56.14 2128.26,-62.2"/>
</g>
</g>
</svg>
